# Blender v2.92.0 OBJ File: ''
# www.blender.org
mtllib lightbulb.mtl
o Line001_Mesh.001
v -0.000343 -0.119953 -0.047686
v -0.000452 -0.118377 -0.032707
v -0.000458 -0.113253 -0.029948
v -0.000668 -0.093152 -0.007087
v -0.000686 -0.087240 -0.007876
v -0.000696 -0.080934 -0.005117
v -0.000720 -0.076205 -0.009058
v -0.000728 -0.071869 -0.007875
v -0.000724 -0.070293 -0.004722
v -0.000748 -0.064775 -0.007875
v -0.000758 -0.060833 -0.007483
v -0.000750 -0.059257 -0.003147
v -0.000778 -0.053739 -0.007877
v -0.000785 -0.050980 -0.007482
v -0.000788 -0.048221 -0.005906
v -0.002856 -0.038767 -0.005900
v -0.001957 -0.028123 0.002768
v -0.001962 -0.022999 0.006316
v -0.002034 0.004590 0.007498
v -0.002067 0.021538 0.012228
v -0.002093 0.042427 0.023658
v -0.002116 0.067860 0.040787
v -0.002169 0.097402 0.050848
v -0.002206 0.111337 0.051405
v -0.002356 0.154256 0.039701
v -0.002389 0.161502 0.034684
v -0.002569 0.192159 0.000126
v -0.002700 0.202613 -0.037150
v -0.002738 0.203170 -0.050528
v 0.000924 -0.119949 -0.047942
v 0.007151 -0.118356 -0.032665
v 0.008200 -0.113229 -0.030119
v 0.016733 -0.093105 -0.009022
v 0.016414 -0.087194 -0.009750
v 0.017459 -0.080884 -0.007204
v 0.015928 -0.076159 -0.010841
v 0.016068 -0.071823 -0.010477
v 0.017278 -0.070243 -0.007567
v 0.016048 -0.064729 -0.010477
v 0.015886 -0.060788 -0.010841
v 0.017551 -0.059207 -0.006840
v 0.015714 -0.053694 -0.011204
v 0.015859 -0.050934 -0.010841
v 0.016458 -0.048174 -0.009386
v 0.014390 -0.038720 -0.009380
v 0.018605 -0.028067 -0.001381
v 0.019958 -0.022939 0.001893
v 0.020338 0.004652 0.002984
v 0.022113 0.021604 0.007349
v 0.026459 0.042506 0.017897
v 0.032987 0.067956 0.033704
v 0.039028 0.097515 0.043472
v 0.039205 0.111450 0.043986
v 0.034578 0.154357 0.033185
v 0.032625 0.161598 0.028555
v 0.019229 0.192218 -0.003336
v 0.004840 0.202634 -0.037735
v -0.000314 0.203177 -0.050080
v 0.001997 -0.119946 -0.048663
v 0.013584 -0.118338 -0.036989
v 0.015527 -0.113209 -0.035044
v 0.031463 -0.093064 -0.018923
v 0.030888 -0.087154 -0.019479
v 0.032827 -0.080842 -0.017533
v 0.030019 -0.076120 -0.020312
v 0.030287 -0.071784 -0.020035
v 0.032518 -0.070201 -0.017811
v 0.030267 -0.064690 -0.020034
v 0.029991 -0.060749 -0.020312
v 0.033061 -0.059164 -0.017255
v 0.029692 -0.053655 -0.020590
v 0.029964 -0.050895 -0.020312
v 0.031074 -0.048133 -0.019201
v 0.029007 -0.038680 -0.019195
v 0.036015 -0.028019 -0.013083
v 0.038516 -0.022888 -0.010581
v 0.039279 0.004704 -0.009747
v 0.042586 0.021661 -0.006412
v 0.050633 0.042572 0.001648
v 0.062708 0.068038 0.013727
v 0.072178 0.097606 0.021189
v 0.072535 0.111542 0.021582
v 0.064118 0.154438 0.013329
v 0.060541 0.161675 0.009791
v 0.035954 0.192264 -0.014578
v 0.009494 0.202646 -0.040863
v 0.000007 0.203178 -0.050297
v 0.002712 -0.119944 -0.049739
v 0.017873 -0.118326 -0.043446
v 0.020411 -0.113196 -0.042397
v 0.041282 -0.093037 -0.033707
v 0.040537 -0.087127 -0.034006
v 0.043086 -0.080814 -0.032957
v 0.039427 -0.076094 -0.034456
v 0.039780 -0.071758 -0.034306
v 0.042692 -0.070173 -0.033107
v 0.039761 -0.064663 -0.034306
v 0.039385 -0.060723 -0.034456
v 0.043391 -0.059136 -0.032807
v 0.039001 -0.053630 -0.034605
v 0.039358 -0.050870 -0.034455
v 0.040809 -0.048107 -0.033856
v 0.038741 -0.038653 -0.033850
v 0.047621 -0.027987 -0.030557
v 0.050888 -0.022854 -0.029208
v 0.051906 0.004738 -0.028758
v 0.056234 0.021698 -0.026960
v 0.066749 0.042616 -0.022615
v 0.084564 0.068098 -0.016109
v 0.094278 0.097667 -0.012083
v 0.094755 0.111603 -0.011871
v 0.083811 0.154493 -0.016320
v 0.079151 0.161726 -0.018227
v 0.047103 0.192295 -0.031364
v 0.012597 0.202655 -0.045534
v 0.000222 0.203179 -0.050620
v 0.002961 -0.119944 -0.051008
v 0.019510 -0.118322 -0.051053
v 0.022255 -0.113190 -0.051061
v 0.045045 -0.093027 -0.051124
v 0.044241 -0.087117 -0.051121
v 0.046997 -0.080803 -0.051129
v 0.043042 -0.076084 -0.051118
v 0.043425 -0.071748 -0.051119
v 0.047102 -0.070161 -0.051129
v 0.043934 -0.064652 -0.051121
v 0.043529 -0.060712 -0.051119
v 0.047860 -0.059123 -0.051131
v 0.043115 -0.053618 -0.051118
v 0.043514 -0.050858 -0.051119
v 0.045083 -0.048095 -0.051124
v 0.045057 -0.038636 -0.051124
v 0.053699 -0.027970 -0.051147
v 0.057232 -0.022837 -0.051157
v 0.058339 0.004756 -0.051160
v 0.063022 0.021717 -0.051173
v 0.074395 0.042638 -0.051204
v 0.091453 0.068117 -0.051251
v 0.101963 0.097688 -0.051280
v 0.102482 0.111624 -0.051282
v 0.090659 0.154512 -0.051249
v 0.085623 0.161744 -0.051235
v 0.050980 0.192306 -0.051140
v 0.013676 0.202658 -0.051037
v 0.000297 0.203179 -0.051000
v 0.002705 -0.119944 -0.052275
v 0.017977 -0.118326 -0.058652
v 0.020509 -0.113195 -0.059715
v 0.041535 -0.093036 -0.068521
v 0.040791 -0.087126 -0.068217
v 0.043334 -0.080813 -0.069280
v 0.039684 -0.076093 -0.067761
v 0.040036 -0.071757 -0.067913
v 0.043470 -0.070171 -0.069129
v 0.040545 -0.064661 -0.067915
v 0.040170 -0.060721 -0.067763
v 0.044167 -0.059133 -0.069433
v 0.039787 -0.053627 -0.067611
v 0.040156 -0.050867 -0.067763
v 0.041603 -0.048104 -0.068370
v 0.041577 -0.038645 -0.068370
v 0.049550 -0.027981 -0.071710
v 0.052809 -0.022849 -0.073076
v 0.053825 0.004744 -0.073532
v 0.058143 0.021704 -0.075354
v 0.068633 0.042622 -0.079757
v 0.084370 0.068098 -0.086355
v 0.094062 0.097667 -0.090434
v 0.094539 0.111603 -0.090649
v 0.083619 0.154493 -0.086139
v 0.078970 0.161726 -0.084207
v 0.046995 0.192295 -0.070894
v 0.012567 0.202655 -0.056534
v 0.000220 0.203179 -0.051381
v 0.001984 -0.119946 -0.053348
v 0.013653 -0.118338 -0.065085
v 0.015584 -0.113209 -0.067041
v 0.031649 -0.093063 -0.083250
v 0.031605 -0.087151 -0.082692
v 0.033533 -0.080840 -0.084649
v 0.030741 -0.076118 -0.081854
v 0.031007 -0.071782 -0.082133
v 0.033226 -0.070199 -0.084369
v 0.030988 -0.064687 -0.082133
v 0.030699 -0.060746 -0.081854
v 0.033752 -0.059162 -0.084928
v 0.030596 -0.053653 -0.081544
v 0.030878 -0.050893 -0.081823
v 0.031788 -0.048131 -0.082972
v 0.031762 -0.038672 -0.082972
v 0.037848 -0.028013 -0.089120
v 0.040335 -0.022883 -0.091635
v 0.041093 0.004709 -0.092473
v 0.044382 0.021666 -0.095826
v 0.052384 0.042578 -0.103931
v 0.064393 0.068044 -0.116076
v 0.071780 0.097606 -0.123585
v 0.072135 0.111542 -0.123980
v 0.063763 0.154438 -0.115680
v 0.060206 0.161675 -0.112123
v 0.035753 0.192264 -0.087619
v 0.009438 0.202646 -0.061188
v 0.000004 0.203178 -0.051703
v 0.000907 -0.119949 -0.054063
v 0.007196 -0.118355 -0.069374
v 0.008230 -0.113229 -0.071926
v 0.016865 -0.093104 -0.093069
v 0.017078 -0.087191 -0.092342
v 0.018109 -0.080882 -0.094893
v 0.016598 -0.076156 -0.091248
v 0.016545 -0.071821 -0.091612
v 0.017739 -0.070241 -0.094528
v 0.016719 -0.064727 -0.091581
v 0.016559 -0.060786 -0.091217
v 0.018202 -0.059205 -0.095227
v 0.016389 -0.053692 -0.090852
v 0.016735 -0.050932 -0.091217
v 0.017327 -0.048171 -0.092675
v 0.017301 -0.038712 -0.092675
v 0.020374 -0.028061 -0.100726
v 0.021902 -0.022934 -0.103976
v 0.022276 0.004657 -0.105070
v 0.023834 0.021610 -0.109475
v 0.028121 0.042511 -0.120046
v 0.034563 0.067962 -0.135889
v 0.038508 0.097515 -0.145684
v 0.038141 0.111449 -0.146198
v 0.033573 0.154356 -0.135371
v 0.032187 0.161598 -0.130733
v 0.018966 0.192218 -0.098768
v 0.004767 0.202634 -0.064290
v -0.000319 0.203177 -0.051917
v -0.000361 -0.119953 -0.054311
v -0.000416 -0.118376 -0.072534
v -0.000437 -0.113252 -0.075293
v -0.000555 -0.093151 -0.098059
v -0.000041 -0.087238 -0.097272
v -0.000066 -0.080932 -0.100031
v -0.000257 -0.076203 -0.095302
v -0.000270 -0.071867 -0.095696
v -0.000283 -0.070291 -0.098849
v -0.000095 -0.064773 -0.095665
v -0.000103 -0.060831 -0.094483
v -0.000123 -0.059255 -0.100394
v -0.000463 -0.053738 -0.095664
v -0.000467 -0.050979 -0.094482
v -0.000483 -0.048220 -0.097634
v -0.002552 -0.038766 -0.098158
v -0.002255 -0.028123 -0.105286
v -0.002624 -0.023001 -0.108271
v -0.002702 0.004589 -0.109453
v -0.002956 0.021537 -0.114213
v -0.002506 0.042427 -0.126174
v -0.002622 0.067860 -0.143303
v -0.002732 0.097402 -0.153893
v -0.003314 0.111335 -0.154687
v -0.003399 0.154254 -0.142982
v -0.002858 0.161502 -0.135531
v -0.002847 0.192159 -0.100972
v -0.002779 0.202613 -0.065893
v -0.002744 0.203170 -0.052516
v -0.001633 -0.119956 -0.055725
v -0.008014 -0.118397 -0.071001
v -0.009091 -0.113276 -0.073547
v -0.017952 -0.093199 -0.094643
v -0.017124 -0.087285 -0.093823
v -0.018204 -0.080982 -0.096369
v -0.016699 -0.076248 -0.092732
v -0.016862 -0.071913 -0.093095
v -0.018079 -0.070339 -0.095218
v -0.016880 -0.064818 -0.092308
v -0.016736 -0.060876 -0.091156
v -0.018415 -0.059304 -0.096732
v -0.017149 -0.053783 -0.092366
v -0.017308 -0.051025 -0.092730
v -0.017923 -0.048267 -0.094185
v -0.019993 -0.038814 -0.094709
v -0.022817 -0.028179 -0.101137
v -0.024739 -0.023061 -0.104647
v -0.025270 0.004527 -0.105738
v -0.027139 0.021470 -0.110103
v -0.031058 0.042349 -0.120652
v -0.037726 0.067764 -0.136458
v -0.041887 0.097294 -0.146231
v -0.042681 0.111227 -0.146744
v -0.038289 0.154159 -0.135942
v -0.035829 0.161412 -0.128878
v -0.022601 0.192104 -0.096986
v -0.008270 0.202598 -0.062587
v -0.003124 0.203169 -0.052439
v -0.002165 -0.119958 -0.055006
v -0.013907 -0.118413 -0.066679
v -0.016418 -0.113296 -0.068622
v -0.032682 -0.093240 -0.084742
v -0.031598 -0.087325 -0.084094
v -0.033571 -0.081024 -0.086039
v -0.030790 -0.076287 -0.083260
v -0.031081 -0.071952 -0.083538
v -0.033317 -0.070381 -0.084186
v -0.031096 -0.064857 -0.081963
v -0.030828 -0.060915 -0.081685
v -0.033910 -0.059347 -0.086317
v -0.031113 -0.053821 -0.082981
v -0.031400 -0.051063 -0.083258
v -0.032525 -0.048307 -0.084370
v -0.034590 -0.038854 -0.083319
v -0.040227 -0.028227 -0.089435
v -0.043297 -0.023112 -0.092173
v -0.044211 0.004475 -0.093006
v -0.047611 0.021414 -0.096341
v -0.055232 0.042283 -0.104403
v -0.067447 0.067682 -0.116481
v -0.075037 0.097203 -0.123949
v -0.076011 0.111136 -0.124340
v -0.067829 0.154078 -0.116086
v -0.063745 0.161335 -0.110114
v -0.039325 0.192059 -0.085745
v -0.012923 0.202585 -0.059459
v -0.003446 0.203168 -0.052223
v -0.002880 -0.119960 -0.053929
v -0.018195 -0.118425 -0.060222
v -0.021302 -0.113310 -0.061269
v -0.042501 -0.093267 -0.069959
v -0.041247 -0.087351 -0.069567
v -0.043816 -0.081052 -0.070615
v -0.040184 -0.076312 -0.069117
v -0.040560 -0.071978 -0.069267
v -0.043477 -0.070409 -0.068890
v -0.040575 -0.064883 -0.067691
v -0.040222 -0.060941 -0.067541
v -0.044236 -0.059375 -0.069189
v -0.039876 -0.053846 -0.067392
v -0.040249 -0.051088 -0.067541
v -0.041714 -0.048333 -0.068141
v -0.043784 -0.038879 -0.068665
v -0.051834 -0.028259 -0.072199
v -0.055129 -0.023144 -0.073548
v -0.056298 0.004442 -0.073997
v -0.060717 0.021378 -0.075027
v -0.071348 0.042238 -0.080139
v -0.087261 0.067628 -0.086651
v -0.097136 0.097143 -0.090438
v -0.097691 0.111076 -0.090888
v -0.086982 0.154025 -0.086438
v -0.082362 0.161284 -0.084531
v -0.050482 0.192028 -0.071394
v -0.016032 0.202577 -0.056985
v -0.003660 0.203168 -0.051900
v -0.003129 -0.119960 -0.052660
v -0.019687 -0.118429 -0.052615
v -0.022460 -0.113313 -0.052607
v -0.045375 -0.093275 -0.052544
v -0.044602 -0.087361 -0.052452
v -0.047379 -0.081062 -0.052445
v -0.043450 -0.076321 -0.052455
v -0.043854 -0.071987 -0.051667
v -0.047012 -0.070419 -0.051657
v -0.043874 -0.064893 -0.051666
v -0.043488 -0.060950 -0.050880
v -0.047828 -0.059385 -0.050868
v -0.043113 -0.053855 -0.050881
v -0.043515 -0.051097 -0.050880
v -0.045099 -0.048342 -0.050876
v -0.047169 -0.038888 -0.051400
v -0.055869 -0.028270 -0.051614
v -0.059431 -0.023156 -0.051604
v -0.060689 0.004430 -0.051601
v -0.065465 0.021365 -0.051588
v -0.076952 0.042223 -0.051556
v -0.094150 0.067608 -0.051509
v -0.104821 0.097121 -0.051241
v -0.105417 0.111054 -0.051478
v -0.093830 0.154006 -0.051510
v -0.088833 0.161266 -0.051523
v -0.054359 0.192017 -0.051618
v -0.017111 0.202574 -0.051482
v -0.003735 0.203168 -0.051519
v -0.002873 -0.119960 -0.051299
v -0.018154 -0.118425 -0.045016
v -0.020714 -0.113308 -0.043953
v -0.041864 -0.093265 -0.035147
v -0.041153 -0.087351 -0.035357
v -0.043716 -0.081052 -0.034294
v -0.040092 -0.076312 -0.035812
v -0.040466 -0.071978 -0.034872
v -0.043380 -0.070409 -0.033657
v -0.040485 -0.064883 -0.034872
v -0.040130 -0.060941 -0.034237
v -0.044135 -0.059375 -0.032567
v -0.039786 -0.053846 -0.034388
v -0.040157 -0.051088 -0.034237
v -0.041619 -0.048333 -0.033629
v -0.043687 -0.038879 -0.033624
v -0.051718 -0.028259 -0.030283
v -0.055008 -0.023145 -0.029685
v -0.056175 0.004442 -0.029229
v -0.060586 0.021378 -0.027407
v -0.071191 0.042238 -0.023004
v -0.087067 0.067628 -0.016405
v -0.096921 0.097143 -0.012087
v -0.097474 0.111076 -0.012110
v -0.086790 0.154025 -0.016619
v -0.082180 0.161284 -0.018552
v -0.050373 0.192028 -0.031864
v -0.016002 0.202577 -0.045986
v -0.003658 0.203168 -0.051139
v -0.002152 -0.119958 -0.050227
v -0.014516 -0.118415 -0.038581
v -0.016475 -0.113297 -0.036625
v -0.032650 -0.093240 -0.020322
v -0.031424 -0.087325 -0.020883
v -0.033387 -0.081024 -0.018926
v -0.030620 -0.076287 -0.021721
v -0.030908 -0.071952 -0.020653
v -0.033136 -0.070381 -0.018417
v -0.030928 -0.064857 -0.020653
v -0.030658 -0.060915 -0.020145
v -0.033720 -0.059347 -0.017071
v -0.030400 -0.053820 -0.020425
v -0.030685 -0.051062 -0.020145
v -0.031805 -0.048306 -0.019028
v -0.033872 -0.038852 -0.019022
v -0.040016 -0.028227 -0.012874
v -0.042534 -0.023110 -0.011126
v -0.043443 0.004477 -0.010288
v -0.046825 0.021415 -0.006934
v -0.054942 0.042283 0.001170
v -0.067090 0.067682 0.013316
v -0.074639 0.097203 0.020825
v -0.075070 0.111137 0.021220
v -0.066934 0.154079 0.012921
v -0.063416 0.161335 0.009603
v -0.039131 0.192059 -0.014901
v -0.012874 0.202585 -0.041332
v -0.003442 0.203168 -0.050817
v -0.001616 -0.119956 -0.049510
v -0.008059 -0.118397 -0.034292
v -0.009121 -0.113277 -0.031740
v -0.017866 -0.093200 -0.010503
v -0.016897 -0.087285 -0.011233
v -0.017963 -0.080982 -0.008682
v -0.016477 -0.076248 -0.012327
v -0.016637 -0.071913 -0.011174
v -0.017840 -0.070339 -0.008257
v -0.016656 -0.064818 -0.011174
v -0.017405 -0.060879 -0.010749
v -0.019057 -0.059307 -0.006739
v -0.016385 -0.053782 -0.011116
v -0.016542 -0.051023 -0.010751
v -0.017149 -0.048266 -0.009293
v -0.019217 -0.038812 -0.009288
v -0.022542 -0.028180 -0.001267
v -0.023905 -0.023059 0.002014
v -0.024430 0.004529 0.003107
v -0.026274 0.021472 0.007482
v -0.030677 0.042349 0.018054
v -0.037260 0.067764 0.033129
v -0.041367 0.097294 0.042925
v -0.041616 0.111229 0.043679
v -0.037284 0.154160 0.032853
v -0.035397 0.161412 0.028213
v -0.022344 0.192104 -0.003751
v -0.008203 0.202598 -0.038229
v -0.003119 0.203169 -0.050602
vt 0.500000 0.250000
vt 0.500000 0.250000
vt 0.500000 0.250000
vt 0.500000 0.750000
vt 0.500000 0.750000
vt 0.500000 0.750000
vt 0.500000 0.750000
vt 0.500000 0.750000
vt 0.500000 0.750000
vt 0.500000 0.750000
vt 0.500000 0.750000
vt 0.500000 0.750000
vt 0.500000 0.750000
vt 0.500000 0.750000
vt 0.500000 0.750000
vt 0.500000 0.750000
vt 0.500000 0.750000
vt 0.500000 0.750000
vt 0.500000 0.750000
vt 0.500000 0.750000
vt 0.500000 0.750000
vt 0.500000 0.750000
vt 0.500000 0.250000
vt 0.500000 0.750000
vt 0.500000 0.250000
vt 0.500000 0.250000
vt 0.500000 0.250000
vt 0.500000 0.250000
vt 0.500000 0.250000
vt 0.500000 0.250000
vt 0.500000 0.250000
vt 0.500000 0.250000
vt 0.500000 0.250000
vt 0.500000 0.750000
vt 0.500000 0.750000
vt 0.500000 0.750000
vt 0.500000 0.750000
vt 0.500000 0.750000
vt 0.500000 0.750000
vt 0.500000 0.250000
vt 0.500000 0.250000
vt 0.500000 0.250000
vt 0.500000 0.250000
vt 0.500000 0.250000
vt 0.500000 0.250000
vt 0.500000 0.250000
vt 0.500000 0.250000
vt 0.500000 0.250000
vt 0.500000 0.250000
vt 0.500000 0.250000
vt 0.500000 0.250000
vt 0.500000 0.250000
vt 0.500000 0.250000
vt 0.500000 0.250000
vt 0.500000 0.250000
vt 0.500000 0.250000
vt 0.500000 0.250000
vt 0.500000 0.250000
vt 0.500000 0.250000
vt 0.500000 0.250000
vt 0.500000 0.250000
vt 0.500000 0.250000
vt 0.500000 0.250000
vt 0.500000 0.250000
vt 0.500000 0.250000
vt 0.500000 0.250000
vt 0.500000 0.250000
vt 0.500000 0.250000
vt 0.500000 0.250000
vt 0.500000 0.250000
vt 0.500000 0.250000
vt 0.500000 0.250000
vt 0.500000 0.250000
vt 0.500000 0.250000
vt 0.500000 0.250000
vt 0.500000 0.250000
vt 0.500000 0.250000
vt 0.500000 0.250000
vt 0.500000 0.250000
vt 0.500000 0.250000
vt 0.500000 0.250000
vt 0.500000 0.250000
vt 0.500000 0.250000
vt 0.500000 0.250000
vt 0.500000 0.250000
vt 0.500000 0.250000
vt 0.500000 0.250000
vt 0.500000 0.250000
vt 0.500000 0.250000
vt 0.500000 0.250000
vt 0.500000 0.250000
vt 0.500000 0.250000
vt 0.500000 0.250000
vt 0.500000 0.250000
vt 0.500000 0.250000
vt 0.500000 0.250000
vt 0.500000 0.250000
vt 0.500000 0.250000
vt 0.500000 0.250000
vt 0.500000 0.250000
vt 0.500000 0.250000
vt 0.500000 0.250000
vt 0.500000 0.250000
vt 0.500000 0.250000
vt 0.500000 0.250000
vt 0.500000 0.250000
vt 0.500000 0.250000
vt 0.500000 0.250000
vt 0.500000 0.250000
vt 0.500000 0.250000
vt 0.500000 0.250000
vt 0.500000 0.250000
vt 0.500000 0.250000
vt 0.500000 0.250000
vt 0.500000 0.250000
vt 0.500000 0.250000
vt 0.500000 0.250000
vt 0.500000 0.250000
vt 0.500000 0.250000
vt 0.500000 0.250000
vt 0.500000 0.250000
vt 0.500000 0.250000
vt 0.500000 0.250000
vt 0.500000 0.250000
vt 0.500000 0.250000
vt 0.500000 0.250000
vt 0.500000 0.250000
vt 0.500000 0.250000
vt 0.500000 0.250000
vt 0.500000 0.250000
vt 0.500000 0.250000
vt 0.500000 0.250000
vt 0.500000 0.250000
vt 0.500000 0.250000
vt 0.500000 0.250000
vt 0.500000 0.250000
vt 0.500000 0.250000
vt 0.500000 0.250000
vt 0.500000 0.250000
vt 0.500000 0.250000
vt 0.500000 0.250000
vt 0.500000 0.250000
vt 0.500000 0.250000
vt 0.500000 0.250000
vt 0.500000 0.250000
vt 0.500000 0.250000
vt 0.500000 0.250000
vt 0.500000 0.250000
vt 0.500000 0.250000
vt 0.500000 0.250000
vt 0.500000 0.250000
vt 0.500000 0.250000
vt 0.500000 0.250000
vt 0.500000 0.250000
vt 0.500000 0.250000
vt 0.500000 0.250000
vt 0.500000 0.250000
vt 0.500000 0.250000
vt 0.500000 0.250000
vt 0.500000 0.250000
vt 0.500000 0.250000
vt 0.500000 0.250000
vt 0.500000 0.250000
vt 0.500000 0.250000
vt 0.500000 0.250000
vt 0.500000 0.250000
vt 0.500000 0.250000
vt 0.500000 0.250000
vt 0.500000 0.250000
vt 0.500000 0.250000
vt 0.500000 0.250000
vt 0.500000 0.250000
vt 0.500000 0.250000
vt 0.500000 0.250000
vt 0.500000 0.250000
vt 0.500000 0.250000
vt 0.500000 0.250000
vt 0.500000 0.250000
vt 0.500000 0.250000
vt 0.500000 0.250000
vt 0.500000 0.250000
vt 0.500000 0.250000
vt 0.500000 0.250000
vt 0.500000 0.250000
vt 0.500000 0.250000
vt 0.500000 0.250000
vt 0.500000 0.250000
vt 0.500000 0.250000
vt 0.500000 0.250000
vt 0.500000 0.250000
vt 0.500000 0.250000
vt 0.500000 0.250000
vt 0.500000 0.250000
vt 0.500000 0.250000
vt 0.500000 0.250000
vt 0.500000 0.250000
vt 0.500000 0.250000
vt 0.500000 0.250000
vt 0.500000 0.250000
vt 0.500000 0.250000
vt 0.500000 0.250000
vt 0.500000 0.750000
vt 0.500000 0.750000
vt 0.500000 0.750000
vt 0.500000 0.750000
vt 0.500000 0.750000
vt 0.500000 0.750000
vt 0.500000 0.250000
vt 0.500000 0.250000
vt 0.500000 0.250000
vt 0.500000 0.250000
vt 0.500000 0.250000
vt 0.500000 0.750000
vt 0.500000 0.750000
vt 0.500000 0.750000
vt 0.500000 0.750000
vt 0.500000 0.750000
vt 0.500000 0.750000
vt 0.500000 0.750000
vt 0.500000 0.750000
vt 0.500000 0.750000
vt 0.500000 0.250000
vt 0.500000 0.250000
vt 0.500000 0.250000
vt 0.500000 0.250000
vt 0.500000 0.250000
vt 0.500000 0.250000
vt 0.500000 0.250000
vt 0.500000 0.250000
vt 0.500000 0.250000
vt 0.500000 0.250000
vt 0.500000 0.250000
vt 0.500000 0.250000
vt 0.500000 0.250000
vt 0.500000 0.250000
vt 0.500000 0.250000
vt 0.500000 0.250000
vt 0.500000 0.250000
vt 0.500000 0.250000
vt 0.500000 0.250000
vt 0.500000 0.250000
vt 0.500000 0.250000
vt 0.500000 0.250000
vt 0.500000 0.250000
vt 0.500000 0.250000
vt 0.500000 0.250000
vt 0.500000 0.250000
vt 0.500000 0.250000
vt 0.500000 0.250000
vt 0.500000 0.250000
vt 0.500000 0.250000
vt 0.500000 0.250000
vt 0.500000 0.250000
vt 0.500000 0.250000
vt 0.500000 0.250000
vt 0.500000 0.250000
vt 0.500000 0.250000
vt 0.500000 0.250000
vt 0.500000 0.250000
vt 0.500000 0.250000
vt 0.500000 0.250000
vt 0.500000 0.250000
vt 0.500000 0.250000
vt 0.500000 0.250000
vt 0.500000 0.250000
vt 0.500000 0.250000
vt 0.500000 0.250000
vt 0.500000 0.250000
vt 0.500000 0.250000
vt 0.500000 0.250000
vt 0.500000 0.250000
vt 0.500000 0.250000
vt 0.500000 0.250000
vt 0.500000 0.250000
vt 0.500000 0.250000
vt 0.500000 0.250000
vt 0.500000 0.250000
vt 0.500000 0.250000
vt 0.500000 0.250000
vt 0.500000 0.250000
vt 0.500000 0.250000
vt 0.500000 0.250000
vt 0.500000 0.250000
vt 0.500000 0.250000
vt 0.500000 0.250000
vt 0.500000 0.250000
vt 0.500000 0.250000
vt 0.500000 0.250000
vt 0.500000 0.250000
vt 0.500000 0.250000
vt 0.500000 0.250000
vt 0.500000 0.250000
vt 0.500000 0.250000
vt 0.500000 0.250000
vt 0.500000 0.250000
vt 0.500000 0.250000
vt 0.500000 0.250000
vt 0.500000 0.250000
vt 0.500000 0.250000
vt 0.500000 0.250000
vt 0.500000 0.250000
vt 0.500000 0.250000
vt 0.500000 0.250000
vt 0.500000 0.250000
vt 0.500000 0.250000
vt 0.500000 0.250000
vt 0.500000 0.250000
vt 0.500000 0.250000
vt 0.500000 0.250000
vt 0.500000 0.250000
vt 0.500000 0.250000
vt 0.500000 0.250000
vt 0.500000 0.250000
vt 0.500000 0.250000
vt 0.500000 0.250000
vt 0.500000 0.250000
vt 0.500000 0.250000
vt 0.500000 0.250000
vt 0.500000 0.250000
vt 0.500000 0.250000
vt 0.500000 0.250000
vt 0.500000 0.250000
vt 0.500000 0.250000
vt 0.500000 0.250000
vt 0.500000 0.250000
vt 0.500000 0.250000
vt 0.500000 0.250000
vt 0.500000 0.250000
vt 0.500000 0.250000
vt 0.500000 0.250000
vt 0.500000 0.250000
vt 0.500000 0.250000
vt 0.500000 0.250000
vt 0.500000 0.250000
vt 0.500000 0.250000
vt 0.500000 0.250000
vt 0.500000 0.250000
vt 0.500000 0.250000
vt 0.500000 0.250000
vt 0.500000 0.250000
vt 0.500000 0.250000
vt 0.500000 0.250000
vt 0.500000 0.250000
vt 0.500000 0.250000
vt 0.500000 0.250000
vt 0.500000 0.250000
vt 0.500000 0.250000
vt 0.500000 0.250000
vt 0.500000 0.250000
vt 0.500000 0.250000
vt 0.500000 0.250000
vt 0.500000 0.250000
vt 0.500000 0.250000
vt 0.500000 0.250000
vt 0.500000 0.250000
vt 0.500000 0.250000
vt 0.500000 0.250000
vt 0.500000 0.250000
vt 0.500000 0.250000
vt 0.500000 0.250000
vt 0.500000 0.250000
vt 0.500000 0.250000
vt 0.500000 0.250000
vt 0.500000 0.250000
vt 0.500000 0.250000
vt 0.500000 0.250000
vt 0.500000 0.250000
vt 0.500000 0.250000
vt 0.500000 0.250000
vt 0.500000 0.250000
vt 0.500000 0.250000
vt 0.500000 0.250000
vt 0.500000 0.250000
vt 0.500000 0.250000
vt 0.500000 0.250000
vt 0.500000 0.250000
vt 0.500000 0.250000
vt 0.500000 0.250000
vt 0.500000 0.250000
vt 0.500000 0.250000
vt 0.500000 0.250000
vt 0.500000 0.250000
vt 0.500000 0.250000
vt 0.500000 0.250000
vt 0.500000 0.250000
vt 0.500000 0.250000
vt 0.500000 0.250000
vt 0.500000 0.250000
vt 0.500000 0.250000
vt 0.500000 0.250000
vt 0.500000 0.250000
vt 0.500000 0.250000
vt 0.500000 0.250000
vt 0.500000 0.250000
vt 0.500000 0.250000
vt 0.500000 0.250000
vt 0.500000 0.250000
vt 0.500000 0.250000
vt 0.500000 0.250000
vt 0.500000 0.250000
vt 0.500000 0.250000
vt 0.500000 0.250000
vt 0.500000 0.250000
vt 0.500000 0.250000
vt 0.500000 0.250000
vt 0.500000 0.250000
vt 0.500000 0.250000
vt 0.500000 0.250000
vt 0.500000 0.250000
vt 0.500000 0.250000
vt 0.500000 0.250000
vt 0.500000 0.250000
vt 0.500000 0.250000
vt 0.500000 0.250000
vt 0.500000 0.250000
vt 0.500000 0.250000
vt 0.500000 0.250000
vt 0.500000 0.250000
vt 0.500000 0.250000
vt 0.500000 0.250000
vt 0.500000 0.250000
vt 0.500000 0.250000
vt 0.500000 0.250000
vt 0.500000 0.250000
vt 0.500000 0.250000
vt 0.500000 0.250000
vt 0.500000 0.250000
vt 0.500000 0.250000
vt 0.500000 0.250000
vt 0.500000 0.250000
vt 0.500000 0.250000
vt 0.500000 0.250000
vt 0.500000 0.250000
vt 0.500000 0.250000
vt 0.500000 0.250000
vt 0.500000 0.250000
vt 0.500000 0.250000
vt 0.500000 0.250000
vt 0.500000 0.250000
vt 0.500000 0.250000
vt 0.500000 0.250000
vt 0.500000 0.250000
vt 0.500000 0.250000
vt 0.500000 0.250000
vt 0.500000 0.250000
vt 0.500000 0.250000
vt 0.500000 0.250000
vt 0.500000 0.250000
vt 0.500000 0.250000
vt 0.500000 0.250000
vt 0.500000 0.250000
vt 0.500000 0.250000
vt 0.500000 0.250000
vt 0.500000 0.250000
vt 0.500000 0.250000
vt 0.500000 0.250000
vt 0.500000 0.250000
vt 0.500000 0.250000
vt 0.500000 0.250000
vt 0.500000 0.250000
vt 0.500000 0.250000
vt 0.500000 0.250000
vt 0.500000 0.250000
vt 0.500000 0.250000
vn -0.0194 -0.3524 0.9356
vn 0.3502 -0.3212 0.8799
vn 0.3103 -0.6049 0.7333
vn 0.0056 -0.5995 0.8004
vn 0.3673 -0.3076 0.8778
vn 0.0035 -0.3086 0.9512
vn 0.3808 -0.1580 0.9111
vn 0.0032 -0.1591 0.9873
vn 0.3571 -0.3809 0.8529
vn 0.0036 -0.3819 0.9242
vn 0.3299 -0.5215 0.7869
vn 0.0038 -0.5224 0.8527
vn 0.3405 -0.4551 0.8228
vn -0.0074 -0.4385 0.8987
vn 0.3739 -0.1948 0.9068
vn -0.0120 -0.1818 0.9833
vn 0.3727 0.1117 0.9212
vn -0.0097 0.1097 0.9939
vn 0.3396 0.4151 0.8440
vn -0.0099 0.4147 0.9099
vn 0.2801 0.6565 0.7004
vn -0.0102 0.6559 0.7548
vn 0.1818 0.8659 0.4660
vn -0.0124 0.8668 0.4986
vn 0.0550 0.9851 0.1630
vn -0.0134 0.9859 0.1670
vn 0.0023 0.9997 0.0243
vn -0.0067 0.9998 0.0209
vn 0.6689 -0.2942 0.6827
vn 0.5640 -0.6098 0.5569
vn 0.6753 -0.3067 0.6707
vn 0.7005 -0.1572 0.6962
vn 0.6564 -0.3801 0.6517
vn 0.5996 -0.5254 0.6037
vn 0.6191 -0.4586 0.6375
vn 0.6959 -0.2057 0.6881
vn 0.7044 0.1128 0.7008
vn 0.6442 0.4162 0.6418
vn 0.5333 0.6576 0.5322
vn 0.3522 0.8670 0.3526
vn 0.1185 0.9856 0.1205
vn 0.0139 0.9998 0.0165
vn 0.8615 -0.2650 0.4330
vn 0.7172 -0.6126 0.3322
vn 0.8639 -0.3080 0.3987
vn 0.8970 -0.1551 0.4139
vn 0.8427 -0.3770 0.3845
vn 0.7730 -0.5354 0.3404
vn 0.8159 -0.4590 0.3516
vn 0.9060 -0.1904 0.3781
vn 0.9189 0.1133 0.3778
vn 0.8406 0.4167 0.3460
vn 0.6962 0.6580 0.2869
vn 0.4601 0.8673 0.1901
vn 0.1554 0.9857 0.0650
vn 0.0189 0.9998 0.0089
vn 0.9403 -0.3356 0.0569
vn 0.7988 -0.6002 0.0413
vn 0.9518 -0.3043 0.0388
vn 0.9868 -0.1569 0.0407
vn 0.9239 -0.3809 0.0359
vn 0.8529 -0.5214 0.0281
vn 0.8937 -0.4487 0.0033
vn 0.9828 -0.1848 -0.0027
vn 0.9935 0.1136 -0.0027
vn 0.9090 0.4169 -0.0025
vn 0.7529 0.6582 -0.0021
vn 0.4976 0.8674 -0.0014
vn 0.1682 0.9858 -0.0005
vn 0.0207 0.9998 -0.0001
vn 0.8657 -0.3468 -0.3610
vn 0.7409 -0.5965 -0.3086
vn 0.8786 -0.3062 -0.3664
vn 0.9115 -0.1566 -0.3803
vn 0.8539 -0.3796 -0.3560
vn 0.7883 -0.5203 -0.3285
vn 0.8274 -0.4432 -0.3449
vn 0.9070 -0.1850 -0.3784
vn 0.9168 0.1133 -0.3828
vn 0.8387 0.4167 -0.3506
vn 0.6946 0.6580 -0.2907
vn 0.4590 0.8673 -0.1926
vn 0.1550 0.9857 -0.0658
vn 0.0189 0.9998 -0.0090
vn 0.6630 -0.3466 -0.6635
vn 0.5668 -0.5974 -0.5673
vn 0.6728 -0.3068 -0.6732
vn 0.6976 -0.1566 -0.6992
vn 0.6528 -0.3801 -0.6553
vn 0.6027 -0.5208 -0.6046
vn 0.6326 -0.4437 -0.6348
vn 0.6922 -0.1845 -0.6977
vn 0.6979 0.1128 -0.7073
vn 0.6392 0.4150 -0.6474
vn 0.5304 0.6576 -0.5351
vn 0.3502 0.8670 -0.3545
vn 0.1178 0.9856 -0.1212
vn 0.0138 0.9998 -0.0165
vn 0.3854 -0.3360 -0.8594
vn 0.3016 -0.5969 -0.7435
vn 0.3560 -0.3092 -0.8818
vn 0.3691 -0.1572 -0.9160
vn 0.3469 -0.3832 -0.8560
vn 0.3271 -0.5214 -0.7881
vn 0.3428 -0.4445 -0.8276
vn 0.3788 -0.1798 -0.9078
vn 0.3771 0.1180 -0.9186
vn 0.3332 0.4156 -0.8463
vn 0.2675 0.6504 -0.7109
vn 0.1671 0.8629 -0.4769
vn 0.0635 0.9856 -0.1570
vn 0.0066 0.9998 -0.0210
vn 0.0199 -0.3288 -0.9442
vn 0.0214 -0.5390 -0.8421
vn 0.0074 -0.2775 -0.9607
vn 0.0055 -0.1588 -0.9873
vn -0.0009 -0.3886 -0.9214
vn 0.0028 -0.5279 -0.8493
vn 0.0031 -0.4454 -0.8953
vn 0.0034 -0.1949 -0.9808
vn -0.0025 0.1031 -0.9947
vn -0.0018 0.4940 -0.8695
vn -0.0093 0.7261 -0.6875
vn -0.0270 0.8651 -0.5010
vn -0.0482 0.9807 -0.1896
vn -0.0023 0.9997 -0.0236
vn -0.3853 -0.3760 -0.8427
vn -0.3075 -0.5852 -0.7503
vn -0.3551 -0.3286 -0.8752
vn -0.3631 -0.1603 -0.9179
vn -0.3427 -0.3802 -0.8591
vn -0.3211 -0.5224 -0.7899
vn -0.3409 -0.4464 -0.8274
vn -0.3725 -0.1957 -0.9072
vn -0.3845 0.1015 -0.9175
vn -0.3347 0.4939 -0.8025
vn -0.2666 0.7310 -0.6281
vn -0.1950 0.8655 -0.4614
vn -0.0884 0.9849 -0.1486
vn -0.0139 0.9996 -0.0233
vn -0.6830 -0.3903 -0.6174
vn -0.5642 -0.6128 -0.5533
vn -0.6738 -0.3404 -0.6558
vn -0.7085 -0.1590 -0.6875
vn -0.6637 -0.3813 -0.6435
vn -0.6051 -0.5184 -0.6043
vn -0.6341 -0.4468 -0.6311
vn -0.6952 -0.2017 -0.6899
vn -0.7112 0.0954 -0.6965
vn -0.6187 0.4790 -0.6227
vn -0.4855 0.7209 -0.4946
vn -0.3407 0.8664 -0.3649
vn -0.0997 0.9861 -0.1330
vn -0.0212 0.9996 -0.0191
vn -0.8359 -0.4455 -0.3207
vn -0.7397 -0.5999 -0.3049
vn -0.8799 -0.3146 -0.3562
vn -0.9163 -0.1541 -0.3696
vn -0.8604 -0.3827 -0.3366
vn -0.7874 -0.5256 -0.3220
vn -0.8273 -0.4464 -0.3410
vn -0.9086 -0.1923 -0.3708
vn -0.9211 0.1039 -0.3753
vn -0.8450 0.4122 -0.3408
vn -0.6942 0.6589 -0.2897
vn -0.4594 0.8639 -0.2065
vn -0.1536 0.9840 -0.0904
vn -0.0250 0.9996 -0.0101
vn -0.8942 -0.4477 -0.0024
vn -0.7999 -0.6001 0.0001
vn -0.9503 -0.3112 0.0026
vn -0.9868 -0.1618 0.0027
vn -0.9234 -0.3838 0.0004
vn -0.8509 -0.5253 0.0018
vn -0.8941 -0.4479 0.0020
vn -0.9817 -0.1902 0.0042
vn -0.9941 0.1081 0.0017
vn -0.9112 0.4119 0.0025
vn -0.7565 0.6540 0.0021
vn -0.5024 0.8646 0.0013
vn -0.1736 0.9848 0.0006
vn -0.0262 0.9997 0.0001
vn -0.8309 -0.4402 0.3404
vn -0.7479 -0.5828 0.3179
vn -0.8843 -0.2948 0.3622
vn -0.9106 -0.1616 0.3803
vn -0.8518 -0.3842 0.3560
vn -0.7854 -0.5246 0.3285
vn -0.8246 -0.4486 0.3448
vn -0.9053 -0.1885 0.3807
vn -0.9175 0.1115 0.3818
vn -0.8414 0.4116 0.3501
vn -0.6989 0.6542 0.2893
vn -0.4643 0.8648 0.1909
vn -0.1607 0.9848 0.0661
vn -0.0244 0.9997 0.0091
vn -0.6452 -0.4212 0.6374
vn -0.5786 -0.5709 0.5826
vn -0.6891 -0.2780 0.6692
vn -0.7052 -0.1606 0.6905
vn -0.6589 -0.3829 0.6475
vn -0.6054 -0.5218 0.6011
vn -0.6301 -0.4472 0.6348
vn -0.6918 -0.1905 0.6965
vn -0.7024 0.1094 0.7034
vn -0.6466 0.4066 0.6454
vn -0.5373 0.6485 0.5392
vn -0.3561 0.8650 0.3536
vn -0.1235 0.9849 0.1212
vn -0.0193 0.9997 0.0166
vn -0.3631 -0.3892 0.8466
vn -0.3029 -0.5994 0.7409
vn -0.3693 -0.3057 0.8776
vn -0.3876 -0.1604 0.9078
vn -0.3615 -0.3834 0.8499
vn -0.3353 -0.5171 0.7875
vn -0.3493 -0.4387 0.8280
vn -0.3742 -0.1955 0.9065
vn -0.3793 0.1027 0.9196
vn -0.3493 0.4134 0.8409
vn -0.2899 0.6547 0.6980
vn -0.1924 0.8655 0.4625
vn -0.0677 0.9851 0.1581
vn -0.0116 0.9997 0.0214
vn -0.0779 -0.9919 0.1008
vn 0.0395 -0.9954 0.0877
vn 0.0321 -0.9953 0.0915
vn -0.0101 -0.9949 0.1003
vn -0.0878 -0.4670 0.8799
vn 0.2472 -0.4711 0.8467
vn 0.2288 -0.6376 0.7356
vn -0.0652 -0.6229 0.7796
vn 0.2260 -0.7535 0.6173
vn -0.0249 -0.7513 0.6595
vn -0.0427 0.1314 0.9904
vn 0.3415 0.1330 0.9304
vn 0.3397 0.1334 0.9310
vn -0.0448 0.1344 0.9899
vn -0.0425 -0.3992 0.9159
vn 0.3131 -0.3996 0.8616
vn 0.3182 -0.4011 0.8590
vn -0.0383 -0.4007 0.9154
vn -0.0361 0.6382 0.7690
vn 0.2666 0.6406 0.7201
vn 0.2597 0.6418 0.7215
vn -0.0418 0.6397 0.7675
vn -0.0285 -0.2496 0.9679
vn 0.3404 -0.0895 0.9360
vn 0.3447 -0.1045 0.9329
vn -0.0230 -0.2632 0.9645
vn -0.0097 -0.8942 0.4476
vn 0.1639 -0.8939 0.4172
vn 0.1663 -0.8942 0.4157
vn -0.0071 -0.8945 0.4471
vn -0.0215 0.4952 0.8685
vn 0.3171 0.4969 0.8078
vn 0.3448 0.3144 0.8844
vn -0.0162 0.2231 0.9747
vn 0.3652 0.0862 0.9269
vn -0.0015 -0.1025 0.9947
vn 0.0035 -0.9398 0.3417
vn 0.1341 -0.9394 0.3154
vn 0.1342 -0.9394 0.3154
vn 0.0003 0.6508 0.7593
vn 0.2906 0.6516 0.7007
vn 0.2905 0.6516 0.7007
vn -0.0007 0.6527 0.7577
vn -0.0025 -0.1414 0.9899
vn 0.3815 -0.1404 0.9136
vn 0.3641 -0.3309 0.8706
vn -0.0018 -0.3322 0.9432
vn 0.3890 -0.2059 0.8979
vn 0.0127 -0.2466 0.9690
vn 0.0704 -0.9953 0.0672
vn 0.0703 -0.9953 0.0673
vn 0.6256 -0.4724 0.6209
vn 0.5515 -0.6304 0.5464
vn 0.4718 -0.7475 0.4677
vn 0.7025 0.1341 0.6990
vn 0.6505 -0.3992 0.6462
vn 0.6505 -0.3990 0.6462
vn 0.5428 0.6417 0.5419
vn 0.5427 0.6417 0.5419
vn 0.7061 -0.0886 0.7025
vn 0.3194 -0.8936 0.3155
vn 0.3195 -0.8936 0.3154
vn 0.6141 0.4978 0.6125
vn 0.6727 0.3130 0.6704
vn 0.7056 0.0990 0.7016
vn 0.2448 -0.9391 0.2410
vn 0.5365 0.6523 0.5355
vn 0.5364 0.6523 0.5355
vn 0.7021 -0.1395 0.6982
vn 0.6696 -0.3301 0.6653
vn 0.7053 -0.1726 0.6876
vn 0.0908 -0.9952 0.0364
vn 0.0908 -0.9952 0.0371
vn 0.8129 -0.4714 0.3421
vn 0.7167 -0.6292 0.3008
vn 0.6135 -0.7464 0.2579
vn 0.9128 0.1346 0.3856
vn 0.9127 0.1347 0.3859
vn 0.8445 -0.3998 0.3564
vn 0.8448 -0.3999 0.3554
vn 0.7063 0.6418 0.2989
vn 0.7055 0.6421 0.3000
vn 0.9174 -0.0880 0.3882
vn 0.9175 -0.0880 0.3879
vn 0.4090 -0.8948 0.1790
vn 0.4124 -0.8933 0.1789
vn 0.7942 0.4974 0.3491
vn 0.8685 0.3135 0.3839
vn 0.9101 0.1017 0.4017
vn 0.3157 -0.9387 0.1383
vn 0.3160 -0.9389 0.1365
vn 0.6944 0.6517 0.3051
vn 0.6925 0.6525 0.3077
vn 0.9060 -0.1390 0.3998
vn 0.8644 -0.3282 0.3809
vn 0.8958 -0.1700 0.4106
vn 0.0975 -0.9952 -0.0003
vn 0.0976 -0.9952 0.0005
vn 0.8818 -0.4717 0.0062
vn 0.7752 -0.6317 0.0045
vn 0.6628 -0.7488 0.0038
vn 0.9908 0.1349 0.0066
vn 0.9908 0.1350 0.0070
vn 0.9165 -0.4000 0.0069
vn 0.9163 -0.4004 0.0059
vn 0.7665 0.6423 0.0044
vn 0.7662 0.6426 0.0058
vn 0.9961 -0.0878 0.0074
vn 0.9961 -0.0879 0.0071
vn 0.3962 -0.9182 0.0034
vn 0.3995 -0.9167 0.0032
vn 0.8668 0.4984 0.0165
vn 0.9484 0.3163 0.0210
vn 0.9945 0.1023 0.0224
vn 0.3443 -0.9388 0.0090
vn 0.3438 -0.9390 0.0065
vn 0.7574 0.6528 0.0139
vn 0.7566 0.6536 0.0174
vn 0.9895 -0.1430 0.0228
vn 0.9430 -0.3322 0.0220
vn 0.9691 -0.2457 0.0207
vn 0.0902 -0.9953 -0.0365
vn 0.8138 -0.4719 -0.3392
vn 0.7160 -0.6312 -0.2981
vn 0.6117 -0.7491 -0.2543
vn 0.9192 0.1268 -0.3729
vn 0.9194 0.1347 -0.3696
vn 0.8506 -0.3995 -0.3419
vn 0.8499 -0.4001 -0.3428
vn 0.7110 0.6417 -0.2875
vn 0.7114 0.6421 -0.2858
vn 0.9243 -0.0879 -0.3715
vn 0.9242 -0.0880 -0.3718
vn 0.3710 -0.9154 -0.1564
vn 0.3699 -0.9167 -0.1510
vn 0.7999 0.4983 -0.3345
vn 0.8758 0.3147 -0.3660
vn 0.9180 0.1020 -0.3833
vn 0.3179 -0.9389 -0.1317
vn 0.7009 0.6511 -0.2910
vn 0.7002 0.6527 -0.2892
vn 0.9150 -0.1429 -0.3773
vn 0.8721 -0.3301 -0.3611
vn 0.8944 -0.2466 -0.3731
vn 0.0696 -0.9953 -0.0672
vn 0.6222 -0.4724 -0.6243
vn 0.5475 -0.6318 -0.5488
vn 0.4678 -0.7497 -0.4681
vn 0.6980 0.0724 -0.7125
vn 0.7105 0.0794 -0.6992
vn 0.6561 -0.3990 -0.6406
vn 0.6549 -0.3996 -0.6415
vn 0.5460 0.6417 -0.5386
vn 0.5470 0.6421 -0.5372
vn 0.7101 -0.0866 -0.6987
vn 0.7095 -0.0887 -0.6991
vn 0.3215 -0.8936 -0.3134
vn 0.3176 -0.8953 -0.3123
vn 0.6106 0.4968 -0.6168
vn 0.6685 0.3141 -0.6741
vn 0.7009 0.1014 -0.7060
vn 0.2434 -0.9391 -0.2425
vn 0.5360 0.6440 -0.5459
vn 0.5387 0.6445 -0.5426
vn 0.7005 -0.1445 -0.6988
vn 0.6756 -0.3158 -0.6662
vn 0.6868 -0.2337 -0.6883
vn 0.0405 -0.9957 -0.0836
vn 0.0471 -0.9953 -0.0843
vn 0.4138 -0.4663 -0.7819
vn 0.3573 -0.6213 -0.6973
vn 0.2773 -0.7499 -0.6005
vn 0.4102 0.0964 -0.9069
vn 0.4254 0.0955 -0.8999
vn 0.3859 -0.3982 -0.8322
vn 0.3825 -0.3995 -0.8331
vn 0.3049 0.6483 -0.6976
vn 0.3065 0.6409 -0.7037
vn 0.4040 -0.0723 -0.9119
vn 0.3951 -0.0740 -0.9156
vn 0.1809 -0.8937 -0.4106
vn 0.1792 -0.8939 -0.4109
vn 0.3423 0.4906 -0.8014
vn 0.3715 0.3163 -0.8729
vn 0.3773 0.1005 -0.9206
vn 0.1415 -0.9420 -0.3042
vn 0.1441 -0.9393 -0.3113
vn 0.3142 0.6508 -0.6912
vn 0.3178 0.6505 -0.6899
vn 0.3674 -0.1386 -0.9197
vn 0.3728 -0.3540 -0.8577
vn 0.4036 -0.2483 -0.8806
vn 0.0376 -0.9944 -0.0989
vn 0.0096 -0.9962 -0.0868
vn 0.0958 -0.4716 -0.8766
vn 0.0734 -0.6378 -0.7667
vn 0.0319 -0.7540 -0.6561
vn 0.0261 0.1313 -0.9910
vn 0.0538 0.1276 -0.9904
vn 0.0409 -0.4003 -0.9155
vn 0.0355 -0.4018 -0.9151
vn 0.0358 0.7002 -0.7131
vn 0.0398 0.7014 -0.7116
vn 0.0409 -0.0902 -0.9951
vn 0.0401 -0.0896 -0.9952
vn 0.0134 -0.8916 -0.4526
vn 0.0096 -0.8946 -0.4468
vn 0.0102 0.4985 -0.8668
vn 0.0196 0.4021 -0.9154
vn 0.0167 0.2744 -0.9615
vn 0.0022 -0.9662 -0.2577
vn 0.0045 -0.9644 -0.2645
vn 0.0301 0.6512 -0.7583
vn 0.0263 0.6522 -0.7576
vn 0.0715 0.3665 -0.9277
vn 0.0499 -0.2394 -0.9696
vn 0.0419 -0.4027 -0.9144
vn 0.0896 -0.9870 -0.1335
vn -0.0316 -0.9960 -0.0838
vn -0.3422 -0.4840 -0.8054
vn -0.2964 -0.6341 -0.7142
vn -0.2512 -0.7514 -0.6102
vn -0.3856 0.1795 -0.9050
vn -0.3686 0.1765 -0.9127
vn -0.3519 -0.4018 -0.8454
vn -0.2977 0.6394 -0.7089
vn -0.2922 0.6471 -0.7042
vn -0.3628 -0.0915 -0.9274
vn -0.3633 -0.0916 -0.9271
vn -0.1969 -0.8351 -0.5137
vn -0.2105 -0.8440 -0.4934
vn -0.3503 0.4957 -0.7947
vn -0.3619 0.3883 -0.8475
vn -0.3791 0.2722 -0.8844
vn -0.1021 -0.9651 -0.2413
vn -0.0957 -0.9652 -0.2433
vn -0.2935 0.6335 -0.7160
vn -0.3059 0.6331 -0.7110
vn -0.3791 -0.1425 -0.9143
vn -0.3388 -0.3203 -0.8846
vn -0.3484 -0.3165 -0.8823
vn -0.0762 -0.9956 -0.0550
vn -0.0666 -0.9956 -0.0658
vn -0.6112 -0.5250 -0.5923
vn -0.5417 -0.6518 -0.5307
vn -0.4662 -0.7522 -0.4656
vn -0.6988 0.2032 -0.6858
vn -0.6900 0.2026 -0.6949
vn -0.6485 -0.4026 -0.6460
vn -0.5465 0.6387 -0.5417
vn -0.7059 -0.0925 -0.7023
vn -0.4142 -0.7819 -0.4660
vn -0.4401 -0.8034 -0.4011
vn -0.6270 0.4944 -0.6020
vn -0.6870 0.3093 -0.6575
vn -0.7162 0.1092 -0.6893
vn -0.2101 -0.9591 -0.1895
vn -0.1937 -0.9612 -0.1964
vn -0.5686 0.6223 -0.5380
vn -0.5870 0.6151 -0.5264
vn -0.7273 -0.1435 -0.6712
vn -0.6919 -0.3354 -0.6394
vn -0.6841 -0.2900 -0.6692
vn -0.0850 -0.9957 -0.0361
vn -0.0850 -0.9957 -0.0360
vn -0.7909 -0.5270 -0.3111
vn -0.6995 -0.6643 -0.2636
vn -0.6121 -0.7526 -0.2426
vn -0.9071 0.2070 -0.3666
vn -0.9022 0.2160 -0.3733
vn -0.8463 -0.4031 -0.3483
vn -0.7123 0.6382 -0.2920
vn -0.9225 -0.0904 -0.3753
vn -0.9225 -0.0931 -0.3747
vn -0.4818 -0.8431 -0.2389
vn -0.4838 -0.8574 -0.1753
vn -0.8031 0.4938 -0.3336
vn -0.8781 0.3111 -0.3634
vn -0.9206 0.0970 -0.3783
vn -0.3135 -0.9407 -0.1299
vn -0.3097 -0.9423 -0.1269
vn -0.7099 0.6488 -0.2742
vn -0.7158 0.6435 -0.2712
vn -0.9288 -0.1439 -0.3416
vn -0.8850 -0.3326 -0.3257
vn -0.8753 -0.3573 -0.3258
vn -0.0923 -0.9957 -0.0003
vn -0.0921 -0.9958 0.0003
vn -0.8792 -0.4765 0.0024
vn -0.7689 -0.6391 0.0191
vn -0.6600 -0.7511 0.0126
vn -0.9915 0.1292 0.0156
vn -0.9903 0.1383 0.0166
vn -0.9151 -0.4033 0.0025
vn -0.7700 0.6381 0.0021
vn -0.9958 -0.0892 -0.0198
vn -0.9947 -0.0999 0.0251
vn -0.4447 -0.8956 0.0034
vn -0.4471 -0.8945 0.0025
vn -0.8696 0.4938 -0.0012
vn -0.9498 0.3126 -0.0138
vn -0.9957 0.0897 0.0240
vn -0.3392 -0.9407 0.0009
vn -0.7610 0.6487 0.0021
vn -0.9896 -0.1441 0.0027
vn -0.9424 -0.3345 0.0026
vn -0.9349 -0.3548 0.0051
vn -0.0845 -0.9958 0.0345
vn -0.0862 -0.9957 0.0334
vn -0.8245 -0.4740 0.3090
vn -0.7244 -0.6315 0.2766
vn -0.6115 -0.7526 0.2443
vn -0.9165 0.1348 0.3765
vn -0.9151 0.1237 0.3838
vn -0.8443 -0.4031 0.3529
vn -0.7107 0.6382 0.2959
vn -0.9190 -0.1576 0.3613
vn -0.9025 -0.1642 0.3982
vn -0.4102 -0.8956 0.1723
vn -0.8026 0.4939 0.3345
vn -0.8914 0.2758 0.3596
vn -0.9137 0.0169 0.4060
vn -0.3128 -0.9407 0.1316
vn -0.7024 0.6489 0.2925
vn -0.9132 -0.1439 0.3814
vn -0.8696 -0.3343 0.3634
vn -0.8636 -0.3460 0.3667
vn -0.0746 -0.9954 0.0603
vn -0.0650 -0.9959 0.0633
vn -0.6452 -0.4756 0.5980
vn -0.5616 -0.6380 0.5269
vn -0.4701 -0.7547 0.4576
vn -0.7086 0.2107 0.6735
vn -0.6937 0.1986 0.6923
vn -0.6449 -0.4026 0.6496
vn -0.5435 0.6387 0.5447
vn -0.6996 -0.2144 0.6816
vn -0.6775 -0.2181 0.7025
vn -0.3129 -0.8953 0.3171
vn -0.6136 0.4945 0.6156
vn -0.6952 0.2404 0.6774
vn -0.7039 -0.0431 0.7090
vn -0.2424 -0.9404 0.2387
vn -0.2414 -0.9405 0.2393
vn -0.5361 0.6543 0.5334
vn -0.5372 0.6493 0.5384
vn -0.6977 -0.1433 0.7019
vn -0.6643 -0.3337 0.6689
vn -0.6599 -0.3226 0.6786
vn -0.0854 -0.9934 0.0766
vn -0.0340 -0.9957 0.0867
vn -0.3382 -0.4747 0.8126
vn -0.2958 -0.6342 0.7144
vn -0.2490 -0.7529 0.6092
vn -0.3899 0.1732 0.9044
vn -0.3678 0.1732 0.9136
vn -0.3517 -0.4016 0.8456
vn -0.3512 -0.4018 0.8457
vn -0.2974 0.6392 0.7092
vn -0.2980 0.6394 0.7088
vn -0.3800 -0.2508 0.8903
vn -0.3650 -0.2519 0.8963
vn -0.1700 -0.8949 0.4127
vn -0.1694 -0.8949 0.4129
vn -0.3355 0.4950 0.8015
vn -0.3692 0.1833 0.9111
vn -0.3911 -0.1618 0.9060
vn -0.1329 -0.9401 0.3138
vn -0.1314 -0.9403 0.3141
vn -0.3014 0.6755 0.6729
vn -0.2844 0.6716 0.6841
vn -0.3810 -0.1424 0.9135
vn -0.3625 -0.3327 0.8706
vn -0.3561 -0.2883 0.8888
usemtl 09_-_Default
s 1
f 16/1/1 45/2/2 46/3/3
f 46/3/3 17/4/4 16/1/1
f 17/4/4 46/3/3 47/5/5
f 47/5/5 18/6/6 17/4/4
f 18/6/6 47/5/5 48/7/7
f 48/7/7 19/8/8 18/6/6
f 19/8/8 48/7/7 49/9/9
f 49/9/9 20/10/10 19/8/8
f 20/10/10 49/9/9 50/11/11
f 50/11/11 21/12/12 20/10/10
f 21/12/12 50/11/11 51/13/13
f 51/13/13 22/14/14 21/12/12
f 22/14/14 51/13/13 52/15/15
f 52/15/15 23/16/16 22/14/14
f 23/16/16 52/15/15 53/17/17
f 53/17/17 24/18/18 23/16/16
f 24/18/18 53/17/17 54/19/19
f 54/19/19 25/20/20 24/18/18
f 25/20/20 54/19/19 55/21/21
f 55/21/21 26/22/22 25/20/20
f 26/22/22 55/21/21 56/23/23
f 56/23/23 27/24/24 26/22/22
f 27/24/24 56/23/23 57/25/25
f 57/25/25 28/26/26 27/24/24
f 28/26/26 57/25/25 58/27/27
f 58/27/27 29/28/28 28/26/26
f 45/2/2 74/29/29 75/30/30
f 75/30/30 46/3/3 45/2/2
f 46/3/3 75/30/30 76/31/31
f 76/31/31 47/5/5 46/3/3
f 47/5/5 76/31/31 77/32/32
f 77/32/32 48/7/7 47/5/5
f 48/7/7 77/32/32 78/33/33
f 78/33/33 49/9/9 48/7/7
f 49/9/9 78/33/33 79/34/34
f 79/34/34 50/11/11 49/9/9
f 50/11/11 79/34/34 80/35/35
f 80/35/35 51/13/13 50/11/11
f 51/13/13 80/35/35 81/36/36
f 81/36/36 52/15/15 51/13/13
f 52/15/15 81/36/36 82/37/37
f 82/37/37 53/17/17 52/15/15
f 53/17/17 82/37/37 83/38/38
f 83/38/38 54/19/19 53/17/17
f 54/19/19 83/38/38 84/39/39
f 84/39/39 55/21/21 54/19/19
f 55/21/21 84/39/39 85/40/40
f 85/40/40 56/23/23 55/21/21
f 56/23/23 85/40/40 86/41/41
f 86/41/41 57/25/25 56/23/23
f 57/25/25 86/41/41 87/42/42
f 87/42/42 58/27/27 57/25/25
f 74/29/29 103/43/43 104/44/44
f 104/44/44 75/30/30 74/29/29
f 75/30/30 104/44/44 105/45/45
f 105/45/45 76/31/31 75/30/30
f 76/31/31 105/45/45 106/46/46
f 106/46/46 77/32/32 76/31/31
f 77/32/32 106/46/46 107/47/47
f 107/47/47 78/33/33 77/32/32
f 78/33/33 107/47/47 108/48/48
f 108/48/48 79/34/34 78/33/33
f 79/34/34 108/48/48 109/49/49
f 109/49/49 80/35/35 79/34/34
f 80/35/35 109/49/49 110/50/50
f 110/50/50 81/36/36 80/35/35
f 81/36/36 110/50/50 111/51/51
f 111/51/51 82/37/37 81/36/36
f 82/37/37 111/51/51 112/52/52
f 112/52/52 83/38/38 82/37/37
f 83/38/38 112/52/52 113/53/53
f 113/53/53 84/39/39 83/38/38
f 84/39/39 113/53/53 114/54/54
f 114/54/54 85/40/40 84/39/39
f 85/40/40 114/54/54 115/55/55
f 115/55/55 86/41/41 85/40/40
f 86/41/41 115/55/55 116/56/56
f 116/56/56 87/42/42 86/41/41
f 103/43/43 132/57/57 133/58/58
f 133/58/58 104/44/44 103/43/43
f 104/44/44 133/58/58 134/59/59
f 134/59/59 105/45/45 104/44/44
f 105/45/45 134/59/59 135/60/60
f 135/60/60 106/46/46 105/45/45
f 106/46/46 135/60/60 136/61/61
f 136/61/61 107/47/47 106/46/46
f 107/47/47 136/61/61 137/62/62
f 137/62/62 108/48/48 107/47/47
f 108/48/48 137/62/62 138/63/63
f 138/63/63 109/49/49 108/48/48
f 109/49/49 138/63/63 139/64/64
f 139/64/64 110/50/50 109/49/49
f 110/50/50 139/64/64 140/65/65
f 140/65/65 111/51/51 110/50/50
f 111/51/51 140/65/65 141/66/66
f 141/66/66 112/52/52 111/51/51
f 112/52/52 141/66/66 142/67/67
f 142/67/67 113/53/53 112/52/52
f 113/53/53 142/67/67 143/68/68
f 143/68/68 114/54/54 113/53/53
f 114/54/54 143/68/68 144/69/69
f 144/69/69 115/55/55 114/54/54
f 115/55/55 144/69/69 145/70/70
f 145/70/70 116/56/56 115/55/55
f 132/57/57 161/71/71 162/72/72
f 162/72/72 133/58/58 132/57/57
f 133/58/58 162/72/72 163/73/73
f 163/73/73 134/59/59 133/58/58
f 134/59/59 163/73/73 164/74/74
f 164/74/74 135/60/60 134/59/59
f 135/60/60 164/74/74 165/75/75
f 165/75/75 136/61/61 135/60/60
f 136/61/61 165/75/75 166/76/76
f 166/76/76 137/62/62 136/61/61
f 137/62/62 166/76/76 167/77/77
f 167/77/77 138/63/63 137/62/62
f 138/63/63 167/77/77 168/78/78
f 168/78/78 139/64/64 138/63/63
f 139/64/64 168/78/78 169/79/79
f 169/79/79 140/65/65 139/64/64
f 140/65/65 169/79/79 170/80/80
f 170/80/80 141/66/66 140/65/65
f 141/66/66 170/80/80 171/81/81
f 171/81/81 142/67/67 141/66/66
f 142/67/67 171/81/81 172/82/82
f 172/82/82 143/68/68 142/67/67
f 143/68/68 172/82/82 173/83/83
f 173/83/83 144/69/69 143/68/68
f 144/69/69 173/83/83 174/84/84
f 174/84/84 145/70/70 144/69/69
f 161/71/71 190/85/85 191/86/86
f 191/86/86 162/72/72 161/71/71
f 162/72/72 191/86/86 192/87/87
f 192/87/87 163/73/73 162/72/72
f 163/73/73 192/87/87 193/88/88
f 193/88/88 164/74/74 163/73/73
f 164/74/74 193/88/88 194/89/89
f 194/89/89 165/75/75 164/74/74
f 165/75/75 194/89/89 195/90/90
f 195/90/90 166/76/76 165/75/75
f 166/76/76 195/90/90 196/91/91
f 196/91/91 167/77/77 166/76/76
f 167/77/77 196/91/91 197/92/92
f 197/92/92 168/78/78 167/77/77
f 168/78/78 197/92/92 198/93/93
f 198/93/93 169/79/79 168/78/78
f 169/79/79 198/93/93 199/94/94
f 199/94/94 170/80/80 169/79/79
f 170/80/80 199/94/94 200/95/95
f 200/95/95 171/81/81 170/80/80
f 171/81/81 200/95/95 201/96/96
f 201/96/96 172/82/82 171/81/81
f 172/82/82 201/96/96 202/97/97
f 202/97/97 173/83/83 172/82/82
f 173/83/83 202/97/97 203/98/98
f 203/98/98 174/84/84 173/83/83
f 190/85/85 219/99/99 220/100/100
f 220/100/100 191/86/86 190/85/85
f 191/86/86 220/100/100 221/101/101
f 221/101/101 192/87/87 191/86/86
f 192/87/87 221/101/101 222/102/102
f 222/102/102 193/88/88 192/87/87
f 193/88/88 222/102/102 223/103/103
f 223/103/103 194/89/89 193/88/88
f 194/89/89 223/103/103 224/104/104
f 224/104/104 195/90/90 194/89/89
f 195/90/90 224/104/104 225/105/105
f 225/105/105 196/91/91 195/90/90
f 196/91/91 225/105/105 226/106/106
f 226/106/106 197/92/92 196/91/91
f 197/92/92 226/106/106 227/107/107
f 227/107/107 198/93/93 197/92/92
f 198/93/93 227/107/107 228/108/108
f 228/108/108 199/94/94 198/93/93
f 199/94/94 228/108/108 229/109/109
f 229/109/109 200/95/95 199/94/94
f 200/95/95 229/109/109 230/110/110
f 230/110/110 201/96/96 200/95/95
f 201/96/96 230/110/110 231/111/111
f 231/111/111 202/97/97 201/96/96
f 202/97/97 231/111/111 232/112/112
f 232/112/112 203/98/98 202/97/97
f 219/99/99 248/113/113 249/114/114
f 249/114/114 220/100/100 219/99/99
f 220/100/100 249/114/114 250/115/115
f 250/115/115 221/101/101 220/100/100
f 221/101/101 250/115/115 251/116/116
f 251/116/116 222/102/102 221/101/101
f 222/102/102 251/116/116 252/117/117
f 252/117/117 223/103/103 222/102/102
f 223/103/103 252/117/117 253/118/118
f 253/118/118 224/104/104 223/103/103
f 224/104/104 253/118/118 254/119/119
f 254/119/119 225/105/105 224/104/104
f 225/105/105 254/119/119 255/120/120
f 255/120/120 226/106/106 225/105/105
f 226/106/106 255/120/120 256/121/121
f 256/121/121 227/107/107 226/106/106
f 227/107/107 256/121/121 257/122/122
f 257/122/122 228/108/108 227/107/107
f 228/108/108 257/122/122 258/123/123
f 258/123/123 229/109/109 228/108/108
f 229/109/109 258/123/123 259/124/124
f 259/124/124 230/110/110 229/109/109
f 230/110/110 259/124/124 260/125/125
f 260/125/125 231/111/111 230/110/110
f 231/111/111 260/125/125 261/126/126
f 261/126/126 232/112/112 231/111/111
f 248/113/113 277/127/127 278/128/128
f 278/128/128 249/114/114 248/113/113
f 249/114/114 278/128/128 279/129/129
f 279/129/129 250/115/115 249/114/114
f 250/115/115 279/129/129 280/130/130
f 280/130/130 251/116/116 250/115/115
f 251/116/116 280/130/130 281/131/131
f 281/131/131 252/117/117 251/116/116
f 252/117/117 281/131/131 282/132/132
f 282/132/132 253/118/118 252/117/117
f 253/118/118 282/132/132 283/133/133
f 283/133/133 254/119/119 253/118/118
f 254/119/119 283/133/133 284/134/134
f 284/134/134 255/120/120 254/119/119
f 255/120/120 284/134/134 285/135/135
f 285/135/135 256/121/121 255/120/120
f 256/121/121 285/135/135 286/136/136
f 286/136/136 257/122/122 256/121/121
f 257/122/122 286/136/136 287/137/137
f 287/137/137 258/123/123 257/122/122
f 258/123/123 287/137/137 288/138/138
f 288/138/138 259/124/124 258/123/123
f 259/124/124 288/138/138 289/139/139
f 289/139/139 260/125/125 259/124/124
f 260/125/125 289/139/139 290/140/140
f 290/140/140 261/126/126 260/125/125
f 277/127/127 306/141/141 307/142/142
f 307/142/142 278/128/128 277/127/127
f 278/128/128 307/142/142 308/143/143
f 308/143/143 279/129/129 278/128/128
f 279/129/129 308/143/143 309/144/144
f 309/144/144 280/130/130 279/129/129
f 280/130/130 309/144/144 310/145/145
f 310/145/145 281/131/131 280/130/130
f 281/131/131 310/145/145 311/146/146
f 311/146/146 282/132/132 281/131/131
f 282/132/132 311/146/146 312/147/147
f 312/147/147 283/133/133 282/132/132
f 283/133/133 312/147/147 313/148/148
f 313/148/148 284/134/134 283/133/133
f 284/134/134 313/148/148 314/149/149
f 314/149/149 285/135/135 284/134/134
f 285/135/135 314/149/149 315/150/150
f 315/150/150 286/136/136 285/135/135
f 286/136/136 315/150/150 316/151/151
f 316/151/151 287/137/137 286/136/136
f 287/137/137 316/151/151 317/152/152
f 317/152/152 288/138/138 287/137/137
f 288/138/138 317/152/152 318/153/153
f 318/153/153 289/139/139 288/138/138
f 289/139/139 318/153/153 319/154/154
f 319/154/154 290/140/140 289/139/139
f 306/141/141 335/155/155 336/156/156
f 336/156/156 307/142/142 306/141/141
f 307/142/142 336/156/156 337/157/157
f 337/157/157 308/143/143 307/142/142
f 308/143/143 337/157/157 338/158/158
f 338/158/158 309/144/144 308/143/143
f 309/144/144 338/158/158 339/159/159
f 339/159/159 310/145/145 309/144/144
f 310/145/145 339/159/159 340/160/160
f 340/160/160 311/146/146 310/145/145
f 311/146/146 340/160/160 341/161/161
f 341/161/161 312/147/147 311/146/146
f 312/147/147 341/161/161 342/162/162
f 342/162/162 313/148/148 312/147/147
f 313/148/148 342/162/162 343/163/163
f 343/163/163 314/149/149 313/148/148
f 314/149/149 343/163/163 344/164/164
f 344/164/164 315/150/150 314/149/149
f 315/150/150 344/164/164 345/165/165
f 345/165/165 316/151/151 315/150/150
f 316/151/151 345/165/165 346/166/166
f 346/166/166 317/152/152 316/151/151
f 317/152/152 346/166/166 347/167/167
f 347/167/167 318/153/153 317/152/152
f 318/153/153 347/167/167 348/168/168
f 348/168/168 319/154/154 318/153/153
f 335/155/155 364/169/169 365/170/170
f 365/170/170 336/156/156 335/155/155
f 336/156/156 365/170/170 366/171/171
f 366/171/171 337/157/157 336/156/156
f 337/157/157 366/171/171 367/172/172
f 367/172/172 338/158/158 337/157/157
f 338/158/158 367/172/172 368/173/173
f 368/173/173 339/159/159 338/158/158
f 339/159/159 368/173/173 369/174/174
f 369/174/174 340/160/160 339/159/159
f 340/160/160 369/174/174 370/175/175
f 370/175/175 341/161/161 340/160/160
f 341/161/161 370/175/175 371/176/176
f 371/176/176 342/162/162 341/161/161
f 342/162/162 371/176/176 372/177/177
f 372/177/177 343/163/163 342/162/162
f 343/163/163 372/177/177 373/178/178
f 373/178/178 344/164/164 343/163/163
f 344/164/164 373/178/178 374/179/179
f 374/179/179 345/165/165 344/164/164
f 345/165/165 374/179/179 375/180/180
f 375/180/180 346/166/166 345/165/165
f 346/166/166 375/180/180 376/181/181
f 376/181/181 347/167/167 346/166/166
f 347/167/167 376/181/181 377/182/182
f 377/182/182 348/168/168 347/167/167
f 364/169/169 393/183/183 394/184/184
f 394/184/184 365/170/170 364/169/169
f 365/170/170 394/184/184 395/185/185
f 395/185/185 366/171/171 365/170/170
f 366/171/171 395/185/185 396/186/186
f 396/186/186 367/172/172 366/171/171
f 367/172/172 396/186/186 397/187/187
f 397/187/187 368/173/173 367/172/172
f 368/173/173 397/187/187 398/188/188
f 398/188/188 369/174/174 368/173/173
f 369/174/174 398/188/188 399/189/189
f 399/189/189 370/175/175 369/174/174
f 370/175/175 399/189/189 400/190/190
f 400/190/190 371/176/176 370/175/175
f 371/176/176 400/190/190 401/191/191
f 401/191/191 372/177/177 371/176/176
f 372/177/177 401/191/191 402/192/192
f 402/192/192 373/178/178 372/177/177
f 373/178/178 402/192/192 403/193/193
f 403/193/193 374/179/179 373/178/178
f 374/179/179 403/193/193 404/194/194
f 404/194/194 375/180/180 374/179/179
f 375/180/180 404/194/194 405/195/195
f 405/195/195 376/181/181 375/180/180
f 376/181/181 405/195/195 406/196/196
f 406/196/196 377/182/182 376/181/181
f 393/183/183 422/197/197 423/198/198
f 423/198/198 394/184/184 393/183/183
f 394/184/184 423/198/198 424/199/199
f 424/199/199 395/185/185 394/184/184
f 395/185/185 424/199/199 425/200/200
f 425/200/200 396/186/186 395/185/185
f 396/186/186 425/200/200 426/201/201
f 426/201/201 397/187/187 396/186/186
f 397/187/187 426/201/201 427/202/202
f 427/202/202 398/188/188 397/187/187
f 398/188/188 427/202/202 428/203/203
f 428/203/203 399/189/189 398/188/188
f 399/189/189 428/203/203 429/204/204
f 429/204/204 400/190/190 399/189/189
f 400/190/190 429/204/204 430/205/205
f 430/205/205 401/191/191 400/190/190
f 401/191/191 430/205/205 431/206/206
f 431/206/206 402/192/192 401/191/191
f 402/192/192 431/206/206 432/207/207
f 432/207/207 403/193/193 402/192/192
f 403/193/193 432/207/207 433/208/208
f 433/208/208 404/194/194 403/193/193
f 404/194/194 433/208/208 434/209/209
f 434/209/209 405/195/195 404/194/194
f 405/195/195 434/209/209 435/210/210
f 435/210/210 406/196/196 405/195/195
f 422/197/197 451/211/211 452/212/212
f 452/212/212 423/198/198 422/197/197
f 423/198/198 452/212/212 453/213/213
f 453/213/213 424/199/199 423/198/198
f 424/199/199 453/213/213 454/214/214
f 454/214/214 425/200/200 424/199/199
f 425/200/200 454/214/214 455/215/215
f 455/215/215 426/201/201 425/200/200
f 426/201/201 455/215/215 456/216/216
f 456/216/216 427/202/202 426/201/201
f 427/202/202 456/216/216 457/217/217
f 457/217/217 428/203/203 427/202/202
f 428/203/203 457/217/217 458/218/218
f 458/218/218 429/204/204 428/203/203
f 429/204/204 458/218/218 459/219/219
f 459/219/219 430/205/205 429/204/204
f 430/205/205 459/219/219 460/220/220
f 460/220/220 431/206/206 430/205/205
f 431/206/206 460/220/220 461/221/221
f 461/221/221 432/207/207 431/206/206
f 432/207/207 461/221/221 462/222/222
f 462/222/222 433/208/208 432/207/207
f 433/208/208 462/222/222 463/223/223
f 463/223/223 434/209/209 433/208/208
f 434/209/209 463/223/223 464/224/224
f 464/224/224 435/210/210 434/209/209
f 451/211/211 16/1/1 17/4/4
f 17/4/4 452/212/212 451/211/211
f 452/212/212 17/4/4 18/6/6
f 18/6/6 453/213/213 452/212/212
f 453/213/213 18/6/6 19/8/8
f 19/8/8 454/214/214 453/213/213
f 454/214/214 19/8/8 20/10/10
f 20/10/10 455/215/215 454/214/214
f 455/215/215 20/10/10 21/12/12
f 21/12/12 456/216/216 455/215/215
f 456/216/216 21/12/12 22/14/14
f 22/14/14 457/217/217 456/216/216
f 457/217/217 22/14/14 23/16/16
f 23/16/16 458/218/218 457/217/217
f 458/218/218 23/16/16 24/18/18
f 24/18/18 459/219/219 458/218/218
f 459/219/219 24/18/18 25/20/20
f 25/20/20 460/220/220 459/219/219
f 460/220/220 25/20/20 26/22/22
f 26/22/22 461/221/221 460/220/220
f 461/221/221 26/22/22 27/24/24
f 27/24/24 462/222/222 461/221/221
f 462/222/222 27/24/24 28/26/26
f 28/26/26 463/223/223 462/222/222
f 463/223/223 28/26/26 29/28/28
f 29/28/28 464/224/224 463/223/223
f 87/42/42 116/56/56 145/70/70
f 145/70/70 174/84/84 203/98/98
f 203/98/98 232/112/112 261/126/126
f 145/70/70 203/98/98 261/126/126
f 261/126/126 290/140/140 319/154/154
f 319/154/154 348/168/168 377/182/182
f 261/126/126 319/154/154 377/182/182
f 377/182/182 406/196/196 435/210/210
f 435/210/210 464/224/224 29/28/28
f 377/182/182 435/210/210 29/28/28
f 261/126/126 377/182/182 29/28/28
f 145/70/70 261/126/126 29/28/28
f 87/42/42 145/70/70 29/28/28
f 58/27/27 87/42/42 29/28/28
usemtl Material_#48
f 1/225/225 30/226/226 31/227/227
f 31/227/227 2/228/228 1/225/225
f 2/228/229 31/227/230 32/229/231
f 32/229/231 3/230/232 2/228/229
f 3/230/232 32/229/231 33/231/233
f 33/231/233 4/232/234 3/230/232
f 4/232/235 33/231/236 34/233/237
f 34/233/237 5/234/238 4/232/235
f 5/234/239 34/233/240 35/235/241
f 35/235/241 6/236/242 5/234/239
f 6/236/243 35/235/244 36/237/245
f 36/237/245 7/238/246 6/236/243
f 7/238/247 36/237/248 37/239/249
f 37/239/249 8/240/250 7/238/247
f 8/240/251 37/239/252 38/241/253
f 38/241/253 9/242/254 8/240/251
f 9/242/255 38/241/256 39/243/257
f 39/243/257 10/244/258 9/242/255
f 10/244/258 39/243/257 40/245/259
f 40/245/259 11/246/260 10/244/258
f 11/246/261 40/245/262 41/247/263
f 41/247/263 12/248/261 11/246/261
f 12/248/264 41/247/265 42/249/266
f 42/249/266 13/250/267 12/248/264
f 13/250/268 42/249/269 43/251/270
f 43/251/270 14/252/271 13/250/268
f 14/252/271 43/251/270 44/253/272
f 44/253/272 15/254/273 14/252/271
f 15/254/273 44/253/272 45/2/2
f 45/2/2 16/1/1 15/254/273
f 30/226/226 59/255/274 60/256/275
f 60/256/275 31/227/227 30/226/226
f 31/227/230 60/256/276 61/257/277
f 61/257/277 32/229/231 31/227/230
f 32/229/231 61/257/277 62/258/278
f 62/258/278 33/231/233 32/229/231
f 33/231/236 62/258/279 63/259/279
f 63/259/279 34/233/237 33/231/236
f 34/233/240 63/259/280 64/260/281
f 64/260/281 35/235/241 34/233/240
f 35/235/244 64/260/282 65/261/283
f 65/261/283 36/237/245 35/235/244
f 36/237/248 65/261/284 66/262/284
f 66/262/284 37/239/249 36/237/248
f 37/239/252 66/262/285 67/263/286
f 67/263/286 38/241/253 37/239/252
f 38/241/256 67/263/287 68/264/288
f 68/264/288 39/243/257 38/241/256
f 39/243/257 68/264/288 69/265/289
f 69/265/289 40/245/259 39/243/257
f 40/245/262 69/265/290 70/266/290
f 70/266/290 41/247/263 40/245/262
f 41/247/265 70/266/291 71/267/292
f 71/267/292 42/249/266 41/247/265
f 42/249/269 71/267/293 72/268/294
f 72/268/294 43/251/270 42/249/269
f 43/251/270 72/268/294 73/269/295
f 73/269/295 44/253/272 43/251/270
f 44/253/272 73/269/295 74/29/29
f 74/29/29 45/2/2 44/253/272
f 59/255/274 88/270/296 89/271/297
f 89/271/297 60/256/275 59/255/274
f 60/256/276 89/271/298 90/272/299
f 90/272/299 61/257/277 60/256/276
f 61/257/277 90/272/299 91/273/300
f 91/273/300 62/258/278 61/257/277
f 62/258/279 91/273/301 92/274/302
f 92/274/302 63/259/279 62/258/279
f 63/259/280 92/274/303 93/275/304
f 93/275/304 64/260/281 63/259/280
f 64/260/282 93/275/305 94/276/306
f 94/276/306 65/261/283 64/260/282
f 65/261/284 94/276/307 95/277/308
f 95/277/308 66/262/284 65/261/284
f 66/262/285 95/277/309 96/278/310
f 96/278/310 67/263/286 66/262/285
f 67/263/287 96/278/311 97/279/312
f 97/279/312 68/264/288 67/263/287
f 68/264/288 97/279/312 98/280/313
f 98/280/313 69/265/289 68/264/288
f 69/265/290 98/280/314 99/281/315
f 99/281/315 70/266/290 69/265/290
f 70/266/291 99/281/316 100/282/317
f 100/282/317 71/267/292 70/266/291
f 71/267/293 100/282/318 101/283/319
f 101/283/319 72/268/294 71/267/293
f 72/268/294 101/283/319 102/284/320
f 102/284/320 73/269/295 72/268/294
f 73/269/295 102/284/320 103/43/43
f 103/43/43 74/29/29 73/269/295
f 88/270/296 117/285/321 118/286/322
f 118/286/322 89/271/297 88/270/296
f 89/271/298 118/286/323 119/287/324
f 119/287/324 90/272/299 89/271/298
f 90/272/299 119/287/324 120/288/325
f 120/288/325 91/273/300 90/272/299
f 91/273/301 120/288/326 121/289/327
f 121/289/327 92/274/302 91/273/301
f 92/274/303 121/289/328 122/290/329
f 122/290/329 93/275/304 92/274/303
f 93/275/305 122/290/330 123/291/331
f 123/291/331 94/276/306 93/275/305
f 94/276/307 123/291/332 124/292/333
f 124/292/333 95/277/308 94/276/307
f 95/277/309 124/292/334 125/293/335
f 125/293/335 96/278/310 95/277/309
f 96/278/311 125/293/336 126/294/337
f 126/294/337 97/279/312 96/278/311
f 97/279/312 126/294/337 127/295/338
f 127/295/338 98/280/313 97/279/312
f 98/280/314 127/295/339 128/296/340
f 128/296/340 99/281/315 98/280/314
f 99/281/316 128/296/341 129/297/342
f 129/297/342 100/282/317 99/281/316
f 100/282/318 129/297/343 130/298/344
f 130/298/344 101/283/319 100/282/318
f 101/283/319 130/298/344 131/299/345
f 131/299/345 102/284/320 101/283/319
f 102/284/320 131/299/345 132/57/57
f 132/57/57 103/43/43 102/284/320
f 117/285/321 146/300/346 147/301/346
f 147/301/346 118/286/322 117/285/321
f 118/286/323 147/301/347 148/302/348
f 148/302/348 119/287/324 118/286/323
f 119/287/324 148/302/348 149/303/349
f 149/303/349 120/288/325 119/287/324
f 120/288/326 149/303/350 150/304/351
f 150/304/351 121/289/327 120/288/326
f 121/289/328 150/304/352 151/305/353
f 151/305/353 122/290/329 121/289/328
f 122/290/330 151/305/354 152/306/355
f 152/306/355 123/291/331 122/290/330
f 123/291/332 152/306/356 153/307/357
f 153/307/357 124/292/333 123/291/332
f 124/292/334 153/307/358 154/308/359
f 154/308/359 125/293/335 124/292/334
f 125/293/336 154/308/360 155/309/361
f 155/309/361 126/294/337 125/293/336
f 126/294/337 155/309/361 156/310/362
f 156/310/362 127/295/338 126/294/337
f 127/295/339 156/310/363 157/311/363
f 157/311/363 128/296/340 127/295/339
f 128/296/341 157/311/364 158/312/365
f 158/312/365 129/297/342 128/296/341
f 129/297/343 158/312/366 159/313/367
f 159/313/367 130/298/344 129/297/343
f 130/298/344 159/313/367 160/314/368
f 160/314/368 131/299/345 130/298/344
f 131/299/345 160/314/368 161/71/71
f 161/71/71 132/57/57 131/299/345
f 146/300/346 175/315/369 176/316/369
f 176/316/369 147/301/346 146/300/346
f 147/301/347 176/316/370 177/317/371
f 177/317/371 148/302/348 147/301/347
f 148/302/348 177/317/371 178/318/372
f 178/318/372 149/303/349 148/302/348
f 149/303/350 178/318/373 179/319/374
f 179/319/374 150/304/351 149/303/350
f 150/304/352 179/319/375 180/320/376
f 180/320/376 151/305/353 150/304/352
f 151/305/354 180/320/377 181/321/378
f 181/321/378 152/306/355 151/305/354
f 152/306/356 181/321/379 182/322/380
f 182/322/380 153/307/357 152/306/356
f 153/307/358 182/322/381 183/323/382
f 183/323/382 154/308/359 153/307/358
f 154/308/360 183/323/383 184/324/384
f 184/324/384 155/309/361 154/308/360
f 155/309/361 184/324/384 185/325/385
f 185/325/385 156/310/362 155/309/361
f 156/310/363 185/325/386 186/326/386
f 186/326/386 157/311/363 156/310/363
f 157/311/364 186/326/387 187/327/388
f 187/327/388 158/312/365 157/311/364
f 158/312/366 187/327/389 188/328/390
f 188/328/390 159/313/367 158/312/366
f 159/313/367 188/328/390 189/329/391
f 189/329/391 160/314/368 159/313/367
f 160/314/368 189/329/391 190/85/85
f 190/85/85 161/71/71 160/314/368
f 175/315/369 204/330/392 205/331/393
f 205/331/393 176/316/369 175/315/369
f 176/316/370 205/331/394 206/332/395
f 206/332/395 177/317/371 176/316/370
f 177/317/371 206/332/395 207/333/396
f 207/333/396 178/318/372 177/317/371
f 178/318/373 207/333/397 208/334/398
f 208/334/398 179/319/374 178/318/373
f 179/319/375 208/334/399 209/335/400
f 209/335/400 180/320/376 179/319/375
f 180/320/377 209/335/401 210/336/402
f 210/336/402 181/321/378 180/320/377
f 181/321/379 210/336/403 211/337/404
f 211/337/404 182/322/380 181/321/379
f 182/322/381 211/337/405 212/338/406
f 212/338/406 183/323/382 182/322/381
f 183/323/383 212/338/407 213/339/408
f 213/339/408 184/324/384 183/323/383
f 184/324/384 213/339/408 214/340/409
f 214/340/409 185/325/385 184/324/384
f 185/325/386 214/340/410 215/341/411
f 215/341/411 186/326/386 185/325/386
f 186/326/387 215/341/412 216/342/413
f 216/342/413 187/327/388 186/326/387
f 187/327/389 216/342/414 217/343/415
f 217/343/415 188/328/390 187/327/389
f 188/328/390 217/343/415 218/344/416
f 218/344/416 189/329/391 188/328/390
f 189/329/391 218/344/416 219/99/99
f 219/99/99 190/85/85 189/329/391
f 204/330/392 233/345/417 234/346/418
f 234/346/418 205/331/393 204/330/392
f 205/331/394 234/346/419 235/347/420
f 235/347/420 206/332/395 205/331/394
f 206/332/395 235/347/420 236/348/421
f 236/348/421 207/333/396 206/332/395
f 207/333/397 236/348/422 237/349/423
f 237/349/423 208/334/398 207/333/397
f 208/334/399 237/349/424 238/350/425
f 238/350/425 209/335/400 208/334/399
f 209/335/401 238/350/426 239/351/427
f 239/351/427 210/336/402 209/335/401
f 210/336/403 239/351/428 240/352/429
f 240/352/429 211/337/404 210/336/403
f 211/337/405 240/352/430 241/353/431
f 241/353/431 212/338/406 211/337/405
f 212/338/407 241/353/432 242/354/433
f 242/354/433 213/339/408 212/338/407
f 213/339/408 242/354/433 243/355/434
f 243/355/434 214/340/409 213/339/408
f 214/340/410 243/355/435 244/356/436
f 244/356/436 215/341/411 214/340/410
f 215/341/412 244/356/437 245/357/438
f 245/357/438 216/342/413 215/341/412
f 216/342/414 245/357/439 246/358/440
f 246/358/440 217/343/415 216/342/414
f 217/343/415 246/358/440 247/359/441
f 247/359/441 218/344/416 217/343/415
f 218/344/416 247/359/441 248/113/113
f 248/113/113 219/99/99 218/344/416
f 233/345/417 262/360/442 263/361/443
f 263/361/443 234/346/418 233/345/417
f 234/346/419 263/361/444 264/362/445
f 264/362/445 235/347/420 234/346/419
f 235/347/420 264/362/445 265/363/446
f 265/363/446 236/348/421 235/347/420
f 236/348/422 265/363/447 266/364/448
f 266/364/448 237/349/423 236/348/422
f 237/349/424 266/364/449 267/365/449
f 267/365/449 238/350/425 237/349/424
f 238/350/426 267/365/450 268/366/451
f 268/366/451 239/351/427 238/350/426
f 239/351/428 268/366/452 269/367/453
f 269/367/453 240/352/429 239/351/428
f 240/352/430 269/367/454 270/368/455
f 270/368/455 241/353/431 240/352/430
f 241/353/432 270/368/456 271/369/457
f 271/369/457 242/354/433 241/353/432
f 242/354/433 271/369/457 272/370/458
f 272/370/458 243/355/434 242/354/433
f 243/355/435 272/370/459 273/371/460
f 273/371/460 244/356/436 243/355/435
f 244/356/437 273/371/461 274/372/462
f 274/372/462 245/357/438 244/356/437
f 245/357/439 274/372/463 275/373/464
f 275/373/464 246/358/440 245/357/439
f 246/358/440 275/373/464 276/374/465
f 276/374/465 247/359/441 246/358/440
f 247/359/441 276/374/465 277/127/127
f 277/127/127 248/113/113 247/359/441
f 262/360/442 291/375/466 292/376/467
f 292/376/467 263/361/443 262/360/442
f 263/361/444 292/376/468 293/377/469
f 293/377/469 264/362/445 263/361/444
f 264/362/445 293/377/469 294/378/470
f 294/378/470 265/363/446 264/362/445
f 265/363/447 294/378/471 295/379/472
f 295/379/472 266/364/448 265/363/447
f 266/364/449 295/379/473 296/380/473
f 296/380/473 267/365/449 266/364/449
f 267/365/450 296/380/474 297/381/474
f 297/381/474 268/366/451 267/365/450
f 268/366/452 297/381/475 298/382/475
f 298/382/475 269/367/453 268/366/452
f 269/367/454 298/382/476 299/383/477
f 299/383/477 270/368/455 269/367/454
f 270/368/456 299/383/478 300/384/479
f 300/384/479 271/369/457 270/368/456
f 271/369/457 300/384/479 301/385/480
f 301/385/480 272/370/458 271/369/457
f 272/370/459 301/385/481 302/386/482
f 302/386/482 273/371/460 272/370/459
f 273/371/461 302/386/483 303/387/484
f 303/387/484 274/372/462 273/371/461
f 274/372/463 303/387/485 304/388/486
f 304/388/486 275/373/464 274/372/463
f 275/373/464 304/388/486 305/389/487
f 305/389/487 276/374/465 275/373/464
f 276/374/465 305/389/487 306/141/141
f 306/141/141 277/127/127 276/374/465
f 291/375/466 320/390/488 321/391/489
f 321/391/489 292/376/467 291/375/466
f 292/376/468 321/391/490 322/392/491
f 322/392/491 293/377/469 292/376/468
f 293/377/469 322/392/491 323/393/492
f 323/393/492 294/378/470 293/377/469
f 294/378/471 323/393/493 324/394/494
f 324/394/494 295/379/472 294/378/471
f 295/379/473 324/394/495 325/395/495
f 325/395/495 296/380/473 295/379/473
f 296/380/474 325/395/496 326/396/496
f 326/396/496 297/381/474 296/380/474
f 297/381/475 326/396/497 327/397/498
f 327/397/498 298/382/475 297/381/475
f 298/382/476 327/397/499 328/398/500
f 328/398/500 299/383/477 298/382/476
f 299/383/478 328/398/501 329/399/502
f 329/399/502 300/384/479 299/383/478
f 300/384/479 329/399/502 330/400/503
f 330/400/503 301/385/480 300/384/479
f 301/385/481 330/400/504 331/401/505
f 331/401/505 302/386/482 301/385/481
f 302/386/483 331/401/506 332/402/507
f 332/402/507 303/387/484 302/386/483
f 303/387/485 332/402/508 333/403/509
f 333/403/509 304/388/486 303/387/485
f 304/388/486 333/403/509 334/404/510
f 334/404/510 305/389/487 304/388/486
f 305/389/487 334/404/510 335/155/155
f 335/155/155 306/141/141 305/389/487
f 320/390/488 349/405/511 350/406/512
f 350/406/512 321/391/489 320/390/488
f 321/391/490 350/406/513 351/407/514
f 351/407/514 322/392/491 321/391/490
f 322/392/491 351/407/514 352/408/515
f 352/408/515 323/393/492 322/392/491
f 323/393/493 352/408/516 353/409/517
f 353/409/517 324/394/494 323/393/493
f 324/394/495 353/409/518 354/410/518
f 354/410/518 325/395/495 324/394/495
f 325/395/496 354/410/519 355/411/519
f 355/411/519 326/396/496 325/395/496
f 326/396/497 355/411/520 356/412/521
f 356/412/521 327/397/498 326/396/497
f 327/397/499 356/412/522 357/413/523
f 357/413/523 328/398/500 327/397/499
f 328/398/501 357/413/524 358/414/525
f 358/414/525 329/399/502 328/398/501
f 329/399/502 358/414/525 359/415/526
f 359/415/526 330/400/503 329/399/502
f 330/400/504 359/415/527 360/416/527
f 360/416/527 331/401/505 330/400/504
f 331/401/506 360/416/528 361/417/528
f 361/417/528 332/402/507 331/401/506
f 332/402/508 361/417/529 362/418/530
f 362/418/530 333/403/509 332/402/508
f 333/403/509 362/418/530 363/419/531
f 363/419/531 334/404/510 333/403/509
f 334/404/510 363/419/531 364/169/169
f 364/169/169 335/155/155 334/404/510
f 349/405/511 378/420/532 379/421/533
f 379/421/533 350/406/512 349/405/511
f 350/406/513 379/421/534 380/422/535
f 380/422/535 351/407/514 350/406/513
f 351/407/514 380/422/535 381/423/536
f 381/423/536 352/408/515 351/407/514
f 352/408/516 381/423/537 382/424/538
f 382/424/538 353/409/517 352/408/516
f 353/409/518 382/424/539 383/425/539
f 383/425/539 354/410/518 353/409/518
f 354/410/519 383/425/540 384/426/540
f 384/426/540 355/411/519 354/410/519
f 355/411/520 384/426/541 385/427/542
f 385/427/542 356/412/521 355/411/520
f 356/412/522 385/427/543 386/428/543
f 386/428/543 357/413/523 356/412/522
f 357/413/524 386/428/544 387/429/545
f 387/429/545 358/414/525 357/413/524
f 358/414/525 387/429/545 388/430/546
f 388/430/546 359/415/526 358/414/525
f 359/415/527 388/430/547 389/431/547
f 389/431/547 360/416/527 359/415/527
f 360/416/528 389/431/548 390/432/548
f 390/432/548 361/417/528 360/416/528
f 361/417/529 390/432/549 391/433/550
f 391/433/550 362/418/530 361/417/529
f 362/418/530 391/433/550 392/434/551
f 392/434/551 363/419/531 362/418/530
f 363/419/531 392/434/551 393/183/183
f 393/183/183 364/169/169 363/419/531
f 378/420/532 407/435/552 408/436/553
f 408/436/553 379/421/533 378/420/532
f 379/421/534 408/436/554 409/437/555
f 409/437/555 380/422/535 379/421/534
f 380/422/535 409/437/555 410/438/556
f 410/438/556 381/423/536 380/422/535
f 381/423/537 410/438/557 411/439/558
f 411/439/558 382/424/538 381/423/537
f 382/424/539 411/439/559 412/440/559
f 412/440/559 383/425/539 382/424/539
f 383/425/540 412/440/560 413/441/560
f 413/441/560 384/426/540 383/425/540
f 384/426/541 413/441/561 414/442/562
f 414/442/562 385/427/542 384/426/541
f 385/427/543 414/442/563 415/443/563
f 415/443/563 386/428/543 385/427/543
f 386/428/544 415/443/564 416/444/565
f 416/444/565 387/429/545 386/428/544
f 387/429/545 416/444/565 417/445/566
f 417/445/566 388/430/546 387/429/545
f 388/430/547 417/445/567 418/446/568
f 418/446/568 389/431/547 388/430/547
f 389/431/548 418/446/569 419/447/570
f 419/447/570 390/432/548 389/431/548
f 390/432/549 419/447/571 420/448/572
f 420/448/572 391/433/550 390/432/549
f 391/433/550 420/448/572 421/449/573
f 421/449/573 392/434/551 391/433/550
f 392/434/551 421/449/573 422/197/197
f 422/197/197 393/183/183 392/434/551
f 407/435/552 436/450/574 437/451/575
f 437/451/575 408/436/553 407/435/552
f 408/436/554 437/451/576 438/452/577
f 438/452/577 409/437/555 408/436/554
f 409/437/555 438/452/577 439/453/578
f 439/453/578 410/438/556 409/437/555
f 410/438/557 439/453/579 440/454/580
f 440/454/580 411/439/558 410/438/557
f 411/439/559 440/454/581 441/455/582
f 441/455/582 412/440/559 411/439/559
f 412/440/560 441/455/583 442/456/584
f 442/456/584 413/441/560 412/440/560
f 413/441/561 442/456/585 443/457/586
f 443/457/586 414/442/562 413/441/561
f 414/442/563 443/457/587 444/458/588
f 444/458/588 415/443/563 414/442/563
f 415/443/564 444/458/589 445/459/590
f 445/459/590 416/444/565 415/443/564
f 416/444/565 445/459/590 446/460/591
f 446/460/591 417/445/566 416/444/565
f 417/445/567 446/460/592 447/461/593
f 447/461/593 418/446/568 417/445/567
f 418/446/569 447/461/594 448/462/595
f 448/462/595 419/447/570 418/446/569
f 419/447/571 448/462/596 449/463/597
f 449/463/597 420/448/572 419/447/571
f 420/448/572 449/463/597 450/464/598
f 450/464/598 421/449/573 420/448/572
f 421/449/573 450/464/598 451/211/211
f 451/211/211 422/197/197 421/449/573
f 436/450/574 1/225/225 2/228/228
f 2/228/228 437/451/575 436/450/574
f 437/451/576 2/228/229 3/230/232
f 3/230/232 438/452/577 437/451/576
f 438/452/577 3/230/232 4/232/234
f 4/232/234 439/453/578 438/452/577
f 439/453/579 4/232/235 5/234/238
f 5/234/238 440/454/580 439/453/579
f 440/454/581 5/234/239 6/236/242
f 6/236/242 441/455/582 440/454/581
f 441/455/583 6/236/243 7/238/246
f 7/238/246 442/456/584 441/455/583
f 442/456/585 7/238/247 8/240/250
f 8/240/250 443/457/586 442/456/585
f 443/457/587 8/240/251 9/242/254
f 9/242/254 444/458/588 443/457/587
f 444/458/589 9/242/255 10/244/258
f 10/244/258 445/459/590 444/458/589
f 445/459/590 10/244/258 11/246/260
f 11/246/260 446/460/591 445/459/590
f 446/460/592 11/246/261 12/248/261
f 12/248/261 447/461/593 446/460/592
f 447/461/594 12/248/264 13/250/267
f 13/250/267 448/462/595 447/461/594
f 448/462/596 13/250/268 14/252/271
f 14/252/271 449/463/597 448/462/596
f 449/463/597 14/252/271 15/254/273
f 15/254/273 450/464/598 449/463/597
f 450/464/598 15/254/273 16/1/1
f 16/1/1 451/211/211 450/464/598
